<mxfile host="app.diagrams.net" modified="2024-06-10T17:05:48.820Z" agent="Mozilla/5.0 (Windows NT 10.0; Win64; x64) AppleWebKit/537.36 (KHTML, like Gecko) Chrome/125.0.0.0 Safari/537.36" etag="M02WTRtk8AuH9O_xX5Uj" version="24.5.2" type="github">
  <diagram name="Page-1" id="7Wh4ggMwc7uwAjn3pU5-">
    <mxGraphModel dx="794" dy="412" grid="1" gridSize="10" guides="1" tooltips="1" connect="1" arrows="1" fold="1" page="1" pageScale="1" pageWidth="827" pageHeight="1169" math="0" shadow="0">
      <root>
        <mxCell id="0" />
        <mxCell id="1" parent="0" />
        <mxCell id="aRxl-0q_iQB1jEvVZf7H-1" value="&lt;b&gt;&lt;font style=&quot;font-size: 18px;&quot;&gt;FUTURE QUEST - WEBSITE&lt;/font&gt;&lt;/b&gt;" style="text;html=1;align=center;verticalAlign=middle;resizable=0;points=[];autosize=1;strokeColor=none;fillColor=none;" vertex="1" parent="1">
          <mxGeometry x="950" y="100" width="260" height="40" as="geometry" />
        </mxCell>
        <mxCell id="aRxl-0q_iQB1jEvVZf7H-16" style="edgeStyle=orthogonalEdgeStyle;rounded=0;orthogonalLoop=1;jettySize=auto;html=1;" edge="1" parent="1" source="aRxl-0q_iQB1jEvVZf7H-2" target="aRxl-0q_iQB1jEvVZf7H-13">
          <mxGeometry relative="1" as="geometry" />
        </mxCell>
        <mxCell id="aRxl-0q_iQB1jEvVZf7H-2" value="" style="verticalLabelPosition=bottom;html=1;verticalAlign=top;align=center;strokeColor=none;fillColor=#00BEF2;shape=mxgraph.azure.azure_website;pointerEvents=1;" vertex="1" parent="1">
          <mxGeometry x="180" y="340" width="50" height="50" as="geometry" />
        </mxCell>
        <mxCell id="aRxl-0q_iQB1jEvVZf7H-3" value="" style="dashed=0;outlineConnect=0;html=1;align=center;labelPosition=center;verticalLabelPosition=bottom;verticalAlign=top;shape=mxgraph.webicons.html5;gradientColor=#DFDEDE" vertex="1" parent="1">
          <mxGeometry x="160" y="308" width="32" height="32" as="geometry" />
        </mxCell>
        <mxCell id="aRxl-0q_iQB1jEvVZf7H-10" value="" style="outlineConnect=0;dashed=0;verticalLabelPosition=bottom;verticalAlign=top;align=center;html=1;shape=mxgraph.aws3.android;fillColor=#205E00;gradientColor=none;" vertex="1" parent="1">
          <mxGeometry x="220" y="311" width="22.75" height="26" as="geometry" />
        </mxCell>
        <mxCell id="aRxl-0q_iQB1jEvVZf7H-11" value="" style="shape=image;verticalLabelPosition=bottom;labelBackgroundColor=default;verticalAlign=top;aspect=fixed;imageAspect=0;image=data:image/jpeg,/9j/4AAQSkZJRgABAQAAAQABAAD/2wCEAAkGBxMSEhUSEBIWFRUWGBgYFhcRFRcYFRgaGRcXGRcVGBgYHSggGBolHRgXITEhJSkrLi4uFx8zODMtNygtLisBCgoKDg0OGhAQFy8lHyUtLS0tLS0vMjEtLS0tLS0tLS0tLS03LS0tLS0tLS0tLS0tLS0tLS0tLS0tLS0tLS0tLf/AABEIAOEA4QMBEQACEQEDEQH/xAAcAAEAAQUBAQAAAAAAAAAAAAAABAIDBQYHAQj/xABJEAABAgMDBQwFCQcFAQEAAAABAAIDBBESITEFIlFxkQYHEzJBUmGBobHB0RQjQpKiFRZTVGJywtLwFzOCk6Oy4SRDY3Px0zT/xAAaAQEAAgMBAAAAAAAAAAAAAAAABAUBAgMG/8QAMREBAAIBAgMGBQQDAAMAAAAAAAECAwQRBSExEjJRUmFxFSIjgaEUQUKRM7HBYtHw/9oADAMBAAIRAxEAPwDtEeM1zSGkEkXAINE3yZVwlWuIIpFb2tePFTuHztl29EDiMb4t/VzRXSkEBAQEBAQEBAQEBAQEBAQEBAQEBAQEBB0Xeio0TLyaVMNor0Wz4qq4lPOse624ZHK0t0mILnOJaCQcCFWLRkOHbzhtQQ2SrmG0aUF5pigwO+NFESQi0rmuhuv/AOxrfxKXoZ2zR90PXRvgn7f7cgV6oRAQEBAQEBAQEBAQSRk+JzPib5rG8Ne1B8nReZ8TfNN4O3B8nReZ8TfNN4O3B8nReZ8TfNN4O3B8nReZ8TfNN4O3B8nReZ8TfNN4O3B8nReZ8TfNN4O3B8nReZ8TfNN4O3B8nReZ8TfNN4O3B8nxeZ8TfNN4O3C3GlXsFXNoMMQe4rLMTErSMulb18mXS0Vwp++Iv6IcPzVPxGfqRHoueGx9OZ9W8MmmsFl1ai40wVesVn0F2kbf8IK/S7eZSlq6tUGI3YyQbJTF9fVu+HPr8K76adstfdH1Ub4bezi69C86ICAgICAgICAgIPCg2eHgNQ7lzcJ6qkYEBAQEBAQEBBjctm5g6T2U81tDpRiVs6usb3Ebg5JubW2+I7HQ4s/AqPXzvmn7LzQRthj7toEpbz60tX0UNNPlD7Pb/hBciSzWAuaLxeL0GNymTGgR4b7wYMTDpYR4rfHPZvE+rnljtUmPRwxpuXpXmYeoCAgICAgICAgIPCg2eHgNQ7lzcJ6qkYEBAQEBAQEBBictm9o6D2keS2q60Y1bN3ZtwUm0yEGo5HH3nuf+JUGrnfNZ6HRxthqy0WZcwlrcBgoySleiM0dpQQoDnFwDi4jlrWnXVBJnWCzmAVNxs40OrkWY6sT0fPtmlx5Ltly9NE7xu8vMbTsLLAgIKbY0jasm5bGkbUNy2NI2oblsaRtQ3LY0jahuWxpG1DctjSNqG4XjSNqbG7ZobxQXjAcvQuThPVVbGkbUYLY0jagWxpG1AtjSNqBbGkbUC2NI2oFsaRtRlUjAjLC5ZOePujvK3h1p0QVmGzteRobmSss1pN0CFWzWlbIrhyrzma3ayWn1l6XBG2OsejNwGNLQXAVpfaAr11XJ1QrcTS7tQTI0w1zS1pqSKAXoI8rDMM2nigpTr6kHDMrQ7MeM0YCLEA1B7qL0uKd6Vn0h5nLG17R6yirdzEAPpeMReOq9YmN42Zidp3d4DGG8NbQ3i4cq8zMzE9Xp4rXbocC3mt2BY7U+LPZr4HAt5rdgTtT4nZr4HAt5rdgTtT4nZr4HAt5rdgTtT4nZr4HAt5rdgTtT4nZr4HAt5rdgTtT4nZr4HAt5rdgTefE7NfBk2Qm0GaMNATtT4sdmvg94JvNGwJ2p8Ts18Dgm80bAnanxOzXwOCbzRsCdqfE7NfA4JvNGwJ2p8Ts18Dgm80bAnanxOzXwOCbzRsCdqfE7NfBREa0AmguBOAWYmd2LVrEdHHQa3r0e23J5Dffm9QYLKp9aeruW8O1eiG7ArLZ3/J1IUMMfcQBQdAAHJqXmLTvMvU16Qtx5dznFzRUHA3LDKd6Uznd6CK2ULM4kEC+5BVEi8LmtuON/+NaDiu6yDYnZhv8AyE+9R3ivQ6Wd8NfZ5zVRtmtHqxK7uAg8KDt2QI1uWgP0woZOuwK9q83mr2clo9XpcNu1jrPonLk6iAgICAgIMkzAakFSAgICAgIIOW4lmXjO0Qnn4SumGO1krHrDjqLdnFafSXJl6F5MQa9PmsR2vuuW8dHevRTKQ7URjec9rdrgPFYvO1Zn0lvSN7RHrDvUSFwptNuAuv28mteZeoVNmgwWCCSLrkFHoLtI7UBs2XmwQADdcgqfCELObecL/wDGpBx/d6P9fGcfb4N39Jje9pV7op3wx91Bro2zT9mvqWiCAg67uEjWpGD9m233YjgOyioNbG2az0GinfBVnlFShAQEBAQEGSZgNSCpAQEBAQEGG3XRLMpFOkNHvPa3xUjSxvlrCJrrbYLS5ir15gQa3MGr3H7R7yukJEdE3c3Atzcu3TGhnqa8OPYCuOonbFafR208b5ax6u3PicFmtvBvv2cmpedekVNlA8WySCb7kFHygdAQX4su1rS5ooQKg1Pigjy0QxDZeailaYaNCDmO+lLhk62goDBYeu1EB7grnh8/S29VJxCPq7+jUFPQBAQT5LLcxBbYgxnsbUmy0ilTicFyvgx3ne1ebrTPkpG1bbQv/Oec+sxNo8lr+lw+Vt+qzeeT5zzn1mJtHksfpcPlP1WbzyfOec+sxNo8k/S4fKfqs3nk+c859ZibR5LP6XD5T9Vm88nznnPrMTaPJY/S4fKfqs3nlelMu5QiusQo0Z7tDLzrNBcOkrW2DT1je0RDeufUW5VtMttyTkXKL6OmZx8Ic1ha6J1mllvxKBlzaeOVKbp+LDqJ53vs3+TgWGgWnO6XuqT+uhQJned0+tezG26+sNhAQEHjnAXk0A0rLEzt1a/lPddAhXMPCu+xxet2GyqlY9Hkv15Qg5uI4sfKOc+jUMsboo0wC1xDWGmY0Y0NRUm836lY4dLTFO/WVRqNbkzfLPKPBiFJQxGWr1XR3ZrcW3/XQKchc7ZDeR20UbWTthslaON81XZ5VgiC0+81pou6taoHoFmNMOaS1poBgKDxQTfRWc3tKCBAa60LQdTlrWnXVBKnCC3MvNfZx7EHMN8+GRFgOdW9jxf9lzTy/eVtw2fltHqqOJR81Z9GlqyVggICAgICDKZJ3PTEzfBhmzz35sPqceN/DVcMupx4+9P2d8WmyZO7Dc8k730JlHTLzFPNZVsPrPGd2alXZeIXnlSNlli4dSOd53bdKSkOE2xCY1jdDAANZpielQLXtad7Tun1pWkbVjZeWrZkmYDUgqQEEecnYcJtqK9rBpcaV6BpK2pS1p2rDS+StI3tOzV8pbt2iol2WjzolzepuJ66Kfj0Fp787KzNxSscscb+stUyjlWNHPrYhcObgwfwi5T8eGmPuwqsuoyZe/P/AKQ11cBAQURnUa46Ae5GY6taXR3bXvZMBngTTNhxDf8Awt/EoWvn6P3TeHx9b7S6lOVLsypFPYwrfo5VSL1Jl3NDRaIrS+tK9dUEKzE+12oJcWZa8FrTebhcUFmXhmGbT7hSl16DR99oh7Zd7eR0Rp/iDSP7SrLhs87Qq+JxyrLnKtlSICAg9hsLiGtBc44BoJJ1AXlYmYjnLMRMztDaMk7hZmLQxaQG/bzn+4Dd1kalCy6/HTlXmm4tBktztyhueSNx8rAobHCvHtRqO2N4o2V6VXZdZlyct9o9Fli0eLHz23n1bAoqU8QEBBkmYDUgx2U8vQIF0SILXMbnO2DDrou2PBkyd2EbNq8WLvTz8Gp5T3aRX1EBohjnGjn+Q7VYY9BWOd53VWbil7cscbf7a1HjOe609xc48riSe3kU2tYrG0Qrb3ted7TuoWzUQEBAQWJ4+rfqPbcsw2r1a8t3ZuW9hLF8eKQOLDA954/Kq7iM/JWPVY8Nj57T6Ony8QQxZfca1uvuw5NSqFytRZZzyXNwOF6CX6WzT2FBHEpYz61s30og9MXhc0Xctcf1ig03fRlLMrDNa0jD+yIPJT+HT9SY9FfxGPpxPq5irlSiAgzm47JEOajmHFLgAwvzCATRzRQkg0GcourzWxU7VUrSYa5b9mzqeTclQZcUgQms0kDOOtxzj1lUmTLfJO9pXePDTHG1YTFzdRAQEBAQU5QyXEjCnpL4bacWE0Da7HtXfHlrT+MT7o2bBbJy7cxHow/zEh/TP91qk/ELeWEL4TTzz+D5iQ/pn+6Fn4hbywfCaeefwfMSH9M/YE+I28sHwmnnn8HzEh/TP2BPiNvLB8Jp55/B8xIf0z9gT4jbywfCaeefwfMSH9M/YE+I28sHwmnnn8Nd3S5IbKvaxry6020bQApeRyalM02ec0TMwr9Zpq4LRETvuxCkIaJlQ+qd1d4WY6tq9WCW7s3/AHqH2DMvpX900f1CfBVfEp7se614ZHen2dAMLhs4GlLqY9PiqtavRN2MylbN1UD0D7XYgoZNOebJpQ3GmPeguRYQhC03HDOw7NSDV98ImJIRHmmY+EbvtRGt8VL0M7Zo+6Hro3wz9nJleqEQEGzb3L6ToHOhxB3O/CoWvjfD94TdByzfaXVVRr0QEBAQEBBkmYDUgqQEBAQEBBzrd4+s1qhsHa8+IVxoI+l93nuJz9bb0a6pquQcsO9XrcB2E+C2hvTqwq2dXS96iWDoEYmv72l3Qxv5lT8Rn54j0XHDY+SZ9W5xYhhGy3A352zk1KvWS4yVa8WjWpvNMEFr052gbD5oJMeC1rSWgAgXEII0m8vdR5qKVoepBid3sEehxmgUFi0R9xzXDuUjSTtmr7o2rjfDb2cYXoHnhAQZvcQ+k9APS8bYUQd5CjayN8NkrRz9ersC8+9AICAgICAgyTMBqQVICAgICAg5juxiVnIvRZA9xp7yVeaONsMPNcQnfUT9mGUlCY3LZzWjpPYP8raHSjErZ0dT3vGlki1zbrcWISRy0o38KpNfO+b7QvOHx9H7y2+TaHtJeKmtKnqUJORpiM5ri1poBgEGQ9GbzQgx8CC5rgSCADeSglTjg9tGGprWgQYzKkH/AEkyx2bbhRAK8uY7BdMU7XrPrDnmr2sdo9JcOBXpHmYeoCCXkmd4CNDjAWrDg6laVHKK8lRVc8tO3Sa+Lpiv2Lxbwbp+0gfVT/OH/wA1XfDZ8/4WPxP/AMPy9/aQ36qf5w/Inw2fP+GficeT8vf2kN+qu/mj8ix8Nnzfg+Jx5T9pDfqrv5o/Inw2fN+D4nHle/tIZ9Wd/NH5E+G2834Z+JR5T9pDPqzv5g/Knw23m/B8Sr5T9pDPqz/5jfyp8Nt5j4lXyyzjN3bKD1DsB7Q8lp8Pt5oafFaeWXvz6Z9A73h5J8Pt5oPi1PLJ8+2fQO94eSfD7eaD4tTyyuym7RsR7GCC4F7mtraF1TSuC1vobVrNu03x8Tre0Vis821qCsxAQcp3RPtTUY/bI2Zvgr7TRtiq8trJ3z392OXdGYrLZvYNfh5LarpjYxbOjse94zg5KEXXBwcQTy1iPPiqDWTvms9Boo2w1ZqcaXuqwWhSlRrKjJSTLxWtaA4gEC8EoIPo7+aUEt8014LRWpuFUFqDCMI2n4YXY/q5B5NM4YENwAINekLMTtLE9HAWilxXp99+by223J6gICAgICAgICDwoNnh4DUO5c3CeqpGBBP3PsrMwR/yNOw18Fx1H+KyTpI3z093WFQPUiAg4/lB9qLEdjWI87XGi9FijalfaHkc075Le8/7WFu5sNlk54+74lbw7U6ICy2ds3OQbUnLMbi2EwmvS0Fed1E75bT6y9Jp42xVj0ZWDEEIWX4m+7Z4Li7LcSVc8lzaUN4qgkems6diC16JYz61s30pRAEXhc2lnlrj+sUCvA3ca11Up/6g4NPw7MWI0ezEeNjiF6XHO9In0h5jJG1595/2sLdoICDqOSdyclEgQYhgVL4bHE8LFxc0E4P0lUmXV5q3mva/ef2hd4tHgtSLdnrHjKX8y5H6D+rG/Ouf63P5vxDp+hweX8yfMqR+g/qxvzp+tz+b8QfocHl/MtD3cZLhy0yGQW2WGG11LTnXlzwb3En2QrTR5bZMe9p57qvWYa4sm1Y5bNfUtEEHhQbPDwGody5uE9VSMCDK7lG1m4I+047GOPgo+rnbDZL0Mb6iv/37OpKienEFLjQFZhiejjVqt+m/avSRG3J4+Z35iMMHlY+sPQB3V8VvHR2r0QXm4rMNpd7kofo8NgxzGtphSy0BeZvO9pl6inKsL4hcNnVs0upj0+K1bPPS7GZStm6tf8IKvQBzuxBahzLnENdShuNyC9HhiGLTMcL7/wBYIKZccLW3yYUux/8AEHE91MGxOTLf+V5942vFei0874qz6PN6iNsto9WLXZxEBB2TchEtSUuf+MN90lvgvPaqNs1vd6LSzvhr7Muo6QIOc76UP10F2mG5vuur+NW/DZ+W0eqn4lHz1n0aUrJWiDwoNnh4DUO5c3CeqpGBBm9xbKzcPoDz8BHiout/wyncOjfPH3dMVI9IIImVYlmBFdzYbzsaSt8cb3iPVzzW7OO0+ES5EF6J5F6g1/KB9Y7X3ABbx0d69FmDCtuaznEN2kDxWLTtWZb1je0R6u/QDwpIfgMKXLzL1CmPEMI2WYUrfffh4ILsOWa8Bzhecb0Fj013RsQSo7GhpLQAaXUAr1II0mSXUfUintXjEaUFU7m0sXY1sXaMaIOObt4ZE9Gry2HX9MNle0FX2infDV5/WxtmswalIogIOs73z6yMIaDEH9V7vFUOuj68/b/S+0M74I+7YlETBBpm+RkuLGEF8GG6JY4QODBUgO4OhoLzxTgrHh+WtN4tO26u4hiteImsb7OcRGFpsuBa4ey4EO2G9W8TE9FPMTHKXiyw8KDZ4eA1DuXNwnqqRhcl5d8Q0hsc8/YaXbaYLW161707N6Utfuxu2/chkGPCjcLFZZbZcAC4F1TSlw6Kqu1eppenZrK20Gky48nbvG3JuirVyIMXunfSUj9LCPezfFdtPG+WvujayfoX9nLFfvLCDW5o1e8/ad3ldEiOiXuehW5uXbpjQq6g9pPYCuWedsdp9HXBG+SseruU6LIFi7TZu7l5x6V7JAFtX3mvtXml2lBHmHuDiGkgcgFadiDIWG6G7Agx8GXc1wc4UAvJuQSJp4iCyy81rTo60FMp6utu6uH6CDle+cB6daF4dCYe17fwq64fP0vuo+IR9bf0ampyCICDp+9pErKOHNivG1rD4lUvEI+rv6Lvh0/S29W2KAniAgtzMuyILMRjXjQ9ocNhW1bWr0lralbcphgp3cVJxMIZhnTBcW/Cat7FJprs1f3390W+hw2/bb2a/O73LrzAmAdDYrafG2v9qlU4lH8q/wBIt+Gz/G39s3k/cK6g4aMBcLoYqfedSmxa34hH8a/2504VM9+39M/J7lpWH/t2zpim12cXsUW+ry2/fb2TsegwU/jv7szDhhoo0AAYACg2BR5nfqlxERyhUsMiAgwW7V9JSJ0lg+Np8FJ0cfWhC4hO2nt9v9uaq8eaAjLWHGprpXR3ZjcbCL52AAK5zjsY8+CjaudsNknSRvnq7NKDg627q4foKgehUzTDENpgqKU679OtBIgx2taGuNCMQgh+iv5vcgkumw8WACCbr6UQUQ4XBG068YXf51IEQcNxbrPO6dWpBzXfSgWY0H/rcNj6/iVvw2fktHqp+JR89fZpSsVaICDou9Y/1UduiI0+82n4VUcSj5q+y44ZPyWj1/43ZVqyEBAQEBBkmYDUgqQEBAQEGtbv30lgOdEaNgcfAKboI+r9ldxSdsO3rDnquHnlMV1AToB7kZjq1ldHds+9xdPNccGsiO7A38Sh6+dsP3hN0Eb5vtLrMQ8Nc26nO6dSo16Q4nBZrryb7tnLqQUulS82wRQ334oLvp7dB7PNBS6UDM8Eki+9BSyLwuabuW79dKD154Hi32tPRq1oNA31W2hLxaYmI06PYp3FWfDZ70eyr4nHKs+7nytVSICCdkvLEeWJMCIWVpaFAWmmFQ4ELllw0yd6HXFmvj7stoyfvixBdMQWv+1CJafddUE9YULJw2v8Lbe6dj4laO/Xf2bLIbs5OLcYvBnRGFn4r2dqh30Wan7b+yZTXYb/AL7e7PQ3hwtNIcDgWkEHrCizEx1SomJ6KlhkQEGSZgNSCpAQeEoTLEzu6SWhcaKHHRDzz8Nw66KRTTZb9KouTW4cfW39MDO7ueSDB64p/C3zUqnD/Nb+kHJxXyV/trmVMsxpigiuBANQ1oAaDSldOnEqbi09MfdhW5tVlzd+UBdkdZnTSG/7p7lmG1erXVu7Nx3rZcPmoleSERXQS9h/CVX8Rn6cR6rHhsb5Jn0dPeOBvbfXT0KnXIyHwuc66l123xQUumyzMABDbr0F30Fuk9iCPCmHOIa41BuIoEF+ZYIYtMuNaVxu60FMqOErwl9MOTHUg0vfWh0gwgMGxQAPvQ4hPcrDh0/Un2V3Eo+nE+rmauFMICAgICC9KTcSEawoj4Z0w3FtddMeta3pW/ejdvS9q92dmx5P3eTUO6JYjD7bbLveZQbQVDvoMVunJLpr8tevNskhvgy77ozHwjppbZtbnfCod+H5K92d0ynEcdu9GzZJHKUGMKwYrIn3HAkaxiOtRL4r070bJlMtL92d2WjzcOG0GI9rBTF7gO9a1pa3KIZvkrSN7Tswk5uyl2XMtRD9kUG11OyqlU0OS3XkhZOJYa9ObATu7WO66G1sMaeO7abuxS6aCkd6d0HJxTJPcjZgpyfixf3sRz+hxu93AbFKpipTuxsgZM2TJ3rTKOujkICAgi5TdSE7q7wsx1bU6sCt3Zve9W2hmnjFrYIB+86JXuVZxKe7Hv8A8WnDI52n2/66JKnhKh99MOTuVUtlMy8wzZYaCldN9+nUgvwZdrmhzhUnE1Pggi+mP09gQTI5bZNmlaXUpXqogjSdQ7PrSntYVqNKCqdvpwfTWx1Y0Qaxvhw65PJPGbEYb8b3WdftKZoJ+tH3QuIRvhn7OTq8UQgICAgICAgIANLxcRgRiOtJ58mYnbm2cPLqFxJNBeTU4aSucREcocLTMzvMvUaiAgICAgIIWWD6vWR4nwWYb06sIt3V0nemh0hxXnAxLJPJmsBFfe7VUcRn56x6LjhsfJafVvE7eBwfXY8aKuWT2TIDc/GvtY0oNKCPMB1o2bVOSzWnVRBkLTdLexBAhSzmkOcKAXm9BfmIgiCyy846O/WgpljwVbd1cOXDUgwO7yBwknHeL2hrT7r2nDqUnSTtmqjayN8NnHVfvPCAgICAgICAg8KDZ4eA1DuXNwnqqRgQEBGUeLOw24uHVeexZ2ZisokXK49ltfvGnYFnstop4okXKER3LT7t3bis7N4rEIzjW8mp0nFZZeIOp72sP/QuaOM+K52wMb+FUvEJ3y/ZecPj6W/q2yWHBVL7q4cvcoKc8mGGIbTLxSmi+88utBehTDWANcbxjcUEb0N/RtQXTNh+ZSlq6qDxsLgs4mvJQXfrBB64cNhm2dN+P/iCPPwmuhPl4gJa9pa4tNDRwvpoK2paa2i0fs1vWL1ms/u0qd3sSRal5i6lQ2M2/wB9n5VZU4j5q/0rL8N8lv7atOblZuH/ALJeNMHP+EZ3YpdNXit++3uiX0ean8d/ZhntINlwIIxBFCNYKkxO8bwjTG3KXiMCAgICAg8KDZ4eA1DuXNwnq8iRWt4zgNZWdjaUOLlRg4tXdg7fJZ2bxRFi5VeeKA3tPb5LOzbsQhxYzncZxOs3bFnZttChARkGNOXRypPKNyOc7M1k3cpOR74cu4N50X1bfioT1AqPfVYqdbf0700uW/Sv9s9k/e8cXATEcC+lILa9HGdT+0qJfiMfxr/aZThs/wA7f03zJOR2SUNrWElrK8bjEuJJJOGJ0Kuy5bZLdqyyxYq46xWqY53DXDNppvxXN0GxeBzTfW+67o8EHhlLefWlq+lEFfp45vagPlWsFoE1F4rggtwopimy64Y5uPbrQexTwNLF9cbXRqppQVQ4Aii26tTowu1oLZmnA2BSgNnlrQXaUFyJLCGLba1GnDR4oIsWVhzWZHhscBfe0H+6q3re1edZ2aXx1vytG7W8tbgpQn1duETfmutDY6t2qilU1+WvXmiX4fit05Nfm97iZDbUCIyKL7jWG/tq07QpdOI0nvRsiX4dkjuzu1meyRMQf30F7KcpFW++2re1S6Z8d+7ZDvgyU71ZQQV22cnqwCAgvvnHm60adF3csbMdmFhZZEBBLkMlx4/7mDEidLGmz1u4o6yud8tKd6zpTFe/drMthyZuBmIpAiOZCB0m24dTc34lEvxDHHdjdLpw7JPenZs0Le8loIDornxjXBxsM2Mo7a4qJfiGWenJMpw/FHe5tjyTkiA0eqhMhUu9U0NJ1nEqJfJe/endMpipSNqxEJESYMMljaUGnG+/xWjddMq0C3U143RXFBbhxzENh1KHRjdfyoKoo4G9l9cbXRqQIUMRRadcRdm4aeXWgofNOYbLaUFwrWvegv8AoLdJ2jyQRIEdznAE1BN4QSZtgY2rBQ1pUIKZLPrbzqYVQW5qIWOstNBoCCUyC0tDiBWla9NK1QRJaKXODXGoOIOpBenGhgBZmkmlyBJtDwS/OINL0FmZilri1poBgBqqglugtDS6grStemiDXou56VmX+ugsJNauaLD/AHmUJ612pqMlO7ZwvpsV+tWCyzvbwm3wIz215IgD26qih71LpxG0d6u6Jfhtf4W2a1N7iJxgLmwxFbpguBPuuodgKl012K377e6HfQ5q9I39mvzEB0N1mI1zHaHtLTsKl1tFo3rO6Las16xs8hQy42WNLnaGgk7BekzERvMsREzO0Qz2TNxk5HNBCDBjWM6z2CruxRr63FX99/ZKpos1v2292xQt7dsOhmI5cTyQmho5PadUnYFDvxKf41TKcNj+dv6bTkTcnJw2hzZdjnVOdEq89VutOqiiX1WW/WyXj0uKnSqc6M4OLQaAGgHRWlFwSEyYhNa0uaACMCEFiTdbJD84UregTjrBAZmgjkQXpaEHNDnCpOJOuiCKIzrVmt1qlOitKIJU1DDGlzBQ3XjWgtSRt1t51KUqgpnHljqMNBStBpqUEiBBa5oc4Aki8oIXpL+cexBkZniO1IIeTuMdXkgryn7PX4IL8jxB196CDE/efxeKCfN8Q/rlQRcm8Y6vFAyliNSCVJ8QfrlKDHs/efxeKCfO8Q9XesSysZN9rqWWFM/xhq81iehHVid2f/4XavAqVpf8kImr/wAcsZvbfuG6/NdNd/kaaD/G2+f4nWFBqnKMnYHqWSVmf43UEgT4fFGodyDHSfHb+uRBKyjxRr8CgZN4p1+CCNO8c9XcEGQdxTq8EECR4/UUF/KWA1oKsncU6/AIIc1xzr8EGUQf/9k=;" vertex="1" parent="1">
          <mxGeometry x="195" y="316" width="20" height="20" as="geometry" />
        </mxCell>
        <mxCell id="aRxl-0q_iQB1jEvVZf7H-21" style="edgeStyle=orthogonalEdgeStyle;rounded=0;orthogonalLoop=1;jettySize=auto;html=1;" edge="1" parent="1" source="aRxl-0q_iQB1jEvVZf7H-13">
          <mxGeometry relative="1" as="geometry">
            <mxPoint x="510" y="255" as="targetPoint" />
          </mxGeometry>
        </mxCell>
        <mxCell id="aRxl-0q_iQB1jEvVZf7H-13" value="" style="dashed=0;outlineConnect=0;html=1;align=center;labelPosition=center;verticalLabelPosition=bottom;verticalAlign=top;shape=mxgraph.weblogos.github" vertex="1" parent="1">
          <mxGeometry x="360" y="230" width="50" height="50" as="geometry" />
        </mxCell>
        <mxCell id="aRxl-0q_iQB1jEvVZf7H-17" value="Github&lt;div&gt;&lt;br&gt;&lt;/div&gt;" style="text;html=1;align=center;verticalAlign=middle;resizable=0;points=[];autosize=1;strokeColor=none;fillColor=none;" vertex="1" parent="1">
          <mxGeometry x="354" y="210" width="60" height="40" as="geometry" />
        </mxCell>
        <mxCell id="aRxl-0q_iQB1jEvVZf7H-18" value="push" style="text;html=1;align=center;verticalAlign=middle;resizable=0;points=[];autosize=1;strokeColor=none;fillColor=none;" vertex="1" parent="1">
          <mxGeometry x="290" y="337" width="50" height="30" as="geometry" />
        </mxCell>
        <mxCell id="aRxl-0q_iQB1jEvVZf7H-25" style="edgeStyle=orthogonalEdgeStyle;rounded=0;orthogonalLoop=1;jettySize=auto;html=1;" edge="1" parent="1" source="aRxl-0q_iQB1jEvVZf7H-19">
          <mxGeometry relative="1" as="geometry">
            <mxPoint x="680" y="253" as="targetPoint" />
          </mxGeometry>
        </mxCell>
        <mxCell id="aRxl-0q_iQB1jEvVZf7H-19" value="" style="image;sketch=0;aspect=fixed;html=1;points=[];align=center;fontSize=12;image=img/lib/mscae/VM_Linux.svg;" vertex="1" parent="1">
          <mxGeometry x="510" y="230" width="50" height="46" as="geometry" />
        </mxCell>
        <mxCell id="aRxl-0q_iQB1jEvVZf7H-20" value="" style="shape=image;html=1;verticalAlign=top;verticalLabelPosition=bottom;labelBackgroundColor=#ffffff;imageAspect=0;aspect=fixed;image=https://cdn1.iconfinder.com/data/icons/operating-system-flat-1/30/ubuntu-128.png" vertex="1" parent="1">
          <mxGeometry x="550" y="210" width="30" height="30" as="geometry" />
        </mxCell>
        <mxCell id="aRxl-0q_iQB1jEvVZf7H-22" value="Linux(ubuntu)" style="text;html=1;align=center;verticalAlign=middle;resizable=0;points=[];autosize=1;strokeColor=none;fillColor=none;" vertex="1" parent="1">
          <mxGeometry x="490" y="276" width="100" height="30" as="geometry" />
        </mxCell>
        <mxCell id="aRxl-0q_iQB1jEvVZf7H-28" style="edgeStyle=orthogonalEdgeStyle;rounded=0;orthogonalLoop=1;jettySize=auto;html=1;" edge="1" parent="1" source="aRxl-0q_iQB1jEvVZf7H-24" target="aRxl-0q_iQB1jEvVZf7H-27">
          <mxGeometry relative="1" as="geometry" />
        </mxCell>
        <mxCell id="aRxl-0q_iQB1jEvVZf7H-24" value="" style="shape=image;verticalLabelPosition=bottom;verticalAlign=top;imageAspect=0;aspect=fixed;image=data:image/jpeg,/9j/4AAQSkZJRgABAQAAAQABAAD/2wCEAAkGBxIHBhITBxASFhIXFRUXFBcWGBcZFRcZGBUYGBsYHRYdHSogGCAlGx8XIT0hMSkuOi4uFyEzOTY4NygtLjcBCgoKDg0OGxAQGy0lHyYtKysxNy4tLSszLS8tLS0tLTArLS0tLS0yMCstLS0tLy0tLS8wLi0tLy8vLS8vNy8tMP/AABEIAOEA4QMBEQACEQEDEQH/xAAbAAEAAwADAQAAAAAAAAAAAAAABQYHAgMEAf/EAEIQAAIBAgQCBgYIBAMJAAAAAAABAgMRBAUGMUFhEiEiUXGBUmJzkbGyBxMyNUKhs9EkNnLwIyY0FCVDY4KiwcLS/8QAGgEBAAIDAQAAAAAAAAAAAAAAAAQFAQIDBv/EADARAQACAQICCQIGAwEAAAAAAAABAgMEESExBRIiM1FxscHRYYEyNEGR4fATI/Gh/9oADAMBAAIRAxEAPwDcQAAAAAAAAAAAAAAAAAAAAAAAAAAAAAAAAAAAAAAAAAAAAAAAAAAAAAAAAAAAAAAAAAAAAAAAAAAAAAAAAAAAAAAAAAAAAAAAAAAAAAAAAAAAAAAAAAAAAAAAAAAAAAAAAAAAAAAAAAAAAAAAAAAAAAAAAAAAAAAAAAAAAAAAAAAAAAAAAAAAAAAAAAAAAeTG5nRwMksXVhFvZN9p/wDTudKYb3/DDlkzUx/inZ2YTGU8ZC+FnGS42fWvFboxfHek7WjZtTLS8b1nd3mjcAAAAAAAAAAAAAAAAAAAAAAAAAAAAArWrNUxyaH1eFtKu1twgu+XPkStPp5ycZ5Iuo1MY42jmzDEV5YmvKeIk5Tk7yb3bLSIiI2hUTMzO8prLsRKFGEqcmpW3TafU7bnbaLV2s4bzW29Z2WjLdWzpWWPj016UeqXu2f5EHLoKzxpOyfh6RtHDJG60YHMaWPhfCzT71tJeK3RXZMN8c7WhaYs1Msb1l6jk6gAAAAAAAAAAAAAAAAAAAAAAAAAqGr9XLLlKjlrTrbSluqf7y5cOPcTNPpuv2rcvVC1Oq6nZpz9GbTqOpNuo223dtu7bfFviWcRsqpnfm43MsJvAP8Ag4+fzM7V5ONubvuZauVOo6c06baa2admvMxMRMbSzFpid4WDLNV1KFljV9ZHv2mv/D/vrIOXQUtxpwn/AMT8PSN68L8Y/wDVxwuIji8PGdB3jJXTKm9Jpaa25rml63rFq8pdpq2AAAAAAAAAAAAAAAAAAAAAAKJrHWX1XSoZPLtbTqL8Pqxffz4cOvafp9Lv2r/srtTq9uxT9/hn17vrLFWvlwFwJzL/APRx8/iztXk4W5vQbNQABd9Dzcsrmnsqjt5xiym6Rj/ZE/Rd9GzM4pj6rEQFiAAAAAAAAAAAAB8nJQg3NpJK7b6kkuNxEbkzsjcJqDC4zE9DDV4OfBdav4N9T8jtfT5ax1prwcKanFeerW0bpM4u4AAAfG7LrAzrWOs/9o6VDJ5djadRby74xfBetx4dXW7LTaXbtX/ZV6nV79nHy8fhRiery4C4C4E5l7/go+fzM7V5OF+b0GzUAAXbQv3bU9o/liU3SPeR5e676M7ufP2hZSvWQAAAAAAAAAAAOuvWjh6Mp12lGKbk3skutszWs2naGLWisTM8mY6q1RLOJuGFvGguGznzly7o+b5Xel0kYo61vxeig1esnNPVrwr6+fwrl+4mIS6aZ1q6NqectuO0au8l/V3rn777lbqdDv2sf7fC00vSEx2cv7/K/wBOoqtNSpNOLV007pp8U+JVTExO0riJiY3hyMMuNSoqVNyqtKKTbbdkkt23wMxG/CGJmIjeWXay1g81cqOXNqhtKWzqftHlx49xa6bS9TtW5+io1Wq/ydmvL1/hUbkxCLgLgLgS+ndO1s+r2w66NNPt1GuyuS9KXL32OGbPXFHHn4O+HBbLPDl4pfNMBHK8fKjQbcYdFJvd3hGTb82yRprzfFFp/Xf1RtTSMeWax+m3pDyndwAAF40H92VPaP5YlN0l3keXvK86L7ufP2hZSuWQAAAAAAAAAAAIvU+CnmGQ1qeG+24pxXe4yUredreZ3014pli1uSPqsc3xWrXmx2cXTm1UTTTs0+pp9zXA9FG08YeamJjhLjcMFwJvTupauR1LR7dFvtQb273F/hf5P8yNqNLTNG/KfH5StNq74Z25x4fDSsHn2HxeWyr06qVOKvPpdThykuD+PC5S3wZKX6kxx9V7j1GO9OvE8PRmmrtWTzyr0MNeOHT6lxm/Sly7o+b69rPT6aMcbzzVep1U5Z2j8Pr5qzckohcBcBe24N100poeeP6NXN04Ut1Dac/HjBfm+W5Cz6uK9mnGU/T6Ob9q/CGmYehHC0Iww8VGEVaMUrJLwKuZmZ3lbVrFY2jkzrVT/wAw1vGH6cD0Gj7iv39Zec135i329IRNySiFwFwLzoL7sqe0fyxKbpLvI8veV50X3c+ftCzFcswAAAAAAAAAAAAK1qzS0c5h9ZhbRrpb/hmlwlz9Ym6XVzinq2419EHV6OM0davC3r5suxFGWGryhiIuM4u0ovdMvK2i0bxyUFqzWZrPCXC5lguB8fXFp7PfyMTG5EzDzVIdDwOc12da23cLmrcuB3YTDTxuIjTwkJTnLaMd3+y58DFrRWN55M1rNp2rG8tP0noiGWdGrmdp190t4U3y9KXPhw7yq1Grm/Zrwj1W+n0cU7V+M+i4kJOAM01W/wDMVbxh+nA9Dou4r9/WXmtd+Yv9vSETclIpcBcC9aB+7KntH8kSl6S7yPL3ledF93Pn7Qs5XLMAAAAAAAAAAAAABBao01Tz2heNo1kuxPv9WXevh705Wm1VsM+MImq0lc8eFvH5ZRj8HUy/FSp4yLjOO6+DT4p95fUvW9etWeDz2SlsduraNpee5u0LgLgdNSl6HuOdqeDpW/ikNP6fr5/iejg1aKfbqS+xH/6fqr8tyNmzVxR2krDgvlnavLxa5p7T1HIcPbCRvN/bqS+3Lz4LkinzZ7ZZ3ld4cFMUbVSxxdgABmeq/wCYq/jD9OB6LRdxX7+svM678xf7ekIklIoAAvegPuup7V/JEpek+8jy95XvRXdW8/aFnK1ZgAAAAAAAAAAAAAInUef0sgwXTxTvJ9UIL7U3y7l3vh7kdsOG2W20OObPXFXeWOZxnlbOMwdXGPlGK+zGPcv34l3hx1xRtVQ58ls1utb/AI6Yz6S6iVE7okxs+3MsFwFwLBpnVNXIp9F9ug31w4q+7i+D5bPluRNTpK5uPKf7zTNLrL4OHOvh8NSyvM6Wa4VVMDNSjx74vua4MosuK+O3VtD0GLNTLXrUnd7Dm6AADMtWfzHX8YfpwPR6LuK/f1l5jXfmL/b0hE3JSKXAXAvf0f8A3XU9q/kiUnSfeR5e8r3orureftC0FatAAAAAAAAAAAAAIHVep6WncN2+1Wkv8Omn1v1n6MefuJGDT2yz9EfUamuGOPPwY1meY1c1xsquOn0pv3JcIpcEu4uqY60r1aqLJktkt1rc3lubtHKE+g+ozE7MTG70wqKa6jrE7uExs5XNmC4C4HsyrNKuU4pVMBPoy4reMl3SXFf2jllxUy16todcWa+K3WpLVNMaqpZ7BRdoV0uuDe/OL/EuW6/MotTpL4ePOPH5eg0utpnjblbw+FgIiYAZhq3+Y6/jD9OB6PRdxX7+svMa78xf7ekIglIgAAvv0ffddT2r+SJSdJ95Hl7yvuiu6t5+0LSVq0AAAAAAAAAAABF6nzN5PkNatSScox7Ke3Sk1FX5JtPyOuDH/kyRWXHPk/x45tDCsZjKmOxUqmMm5zk7yk93+y5F/WsVjaI4PPWvNp61p3l03NmpcCU0/kNfP8V0MDHsr7c39iC5vi+W/wATjmzUxRvZ2w4L5Z2q1bLdEYTB5VKjUh05TXbqO3TvwcX+Cz2S87lVbWZJvFonbZcV0WKMc0mN9/1Z3qbTtTIMVap2qUn2KnB+q+6Xx4cbXOm1Nc1eHP8AWFFqtLbBbjxj9J/v6oa5JRS4C4H2E3TmnTbTTumnZp96fAxMb8JZiZid4aFpXXinalnrSe0auyf9fd/Vt323KnVdH7drF+3wudJ0lv2c37/PyvyfSV47FSuGYau/mSv4w/Tgek0P5ev39ZeX1/5m/wBvSERclIhcBcC/fR791VPav5IlH0p3keXvK+6J7q3n7QtJWrUAAAAAAAAAAAHnzDBQzHAzpYtXhOLjJePFdzW9+RtS80tFo5tb0i9ZrPKWKas0vV05iu3eVGT/AMOpb/tl3S+PDileafUVyx9VBqdNbDP08UBckIy4aQ0NUzno1cw6VPD7rhOp/Svwr1vd3kLUauuPs14z6J2m0Vsnatwj1a1gMDTy7CRp4GChCOyXxvu3z4lRe9rzvaeK6pStK9WsbQ9Bq2dGNwlPHYaVPFwUoSVmn/fU+ZtS9qW61Z2lpelb1mto3hkmrdK1MhrdKleeHb7MuMb7Rl+/Hx6j0Gl1dc0bTwt/eTzur0VsE7xxr6eau3JiEXAXAXAsultYVckahiL1KHo/ihzg38u3gQtVoq5uMcLevn8p2k118PZtxr6eXw7tQYyGYZxUq4SXShPoOL2/4cU+p7Waa8jtpaTTDWtucb+suGrvW+e1q8p29IR5IRgABf8A6PPuqp7V/JEo+lO9jy95X/RPdW8/aFqKxagAAAAAAAAAAAAdOMwkMdhZU8XBShJWlF7P++82raazvHNrasWjaeSt4D6P8DgsYqihOdneMZy6UE/C3X53JN9bltG26NTQ4a262y1ERLAAADrr0Y4ii4V4qUZK0k1dNPg0ZraazvDFqxaNp5Mq1lo+WTydXL05YfjxlT5Pvj63v73faTWxl7N/xerz2s0E4u3TjX0/hUrk9XFwFwFwJXBv+Fj5/FmWHfcywXAXAv8A9Hf3TU9q/kiUXSnex5e8vQdEd1bz9oWsrFqAAAAAAAAAAAAAAAAAAAAA+Sipxakk0+pp7MDMNa6KeA6VfKIt0t5011un60e+PLh4bXmj13X7GTn4+P8AKh13R80/2Y+X6x4fwo1yzVIAAl8G/wCFj5/FmWHdcBcBcDQvo6X+6Kj/AOa/kgUXSnex5e8vQdER/qnz9oWorFqAAAAAAAAAAAAAAAAAAAAAAAM61voi/SxGSR51KSXvlBf+vu7i40Wv5Y8n2n5+VNruj998mKPOPhnNy4UZcCXwX+lj5/FmWHcAuNhO5RpXEZlZyj9XT9Kas2uUN3+S5kLPrsWLhvvP0+U7T9H5svGY2j6/H/GjZXgIZZgY0sP9mK3e7b623zbKDNltlvN7fq9Hgw1w0ileUPWcnUAAAAAAAAAAAAAAAAAAAAAAAAKNrfRKzDpV8oilW3nBdSqc13S+PiWmj13U7GTl6fwqtb0fGTt4+fr/ACy2cXCbU0002mn1NNbprgXkTvxh5+YmJ2lLYNWw0V/fW+oy1WfKNIYjMLOuvqod812n4Q399iDn6QxY+EcZ+nysNP0bmy8bdmPrz/b5XbKNNYfKrOlDpT9OfXLy4R8kU+fW5c3CZ2jwhd6fQ4cPGI3nxn+8PsmCImAAAAAAAAAAAAAAAAAAAAAAAAAAAAIPN9J4TN6/TxVK1R7yi7N+K2l4tErDrcuKNqzw+qJn0WHNO9o4/R6Mq0/h8qd8JTXS9KXal5N7eVjGbV5c3C08GcGjw4eNI4+POUoRkoAAAAAAAAAAAAAAAAAAAAAAAAAAAAAAAAAAAAAAAAAAAAAAAAAAAAAAAAAAAAAAAAAAAAAAAAAAAAAAAAAAAAAAAAAAAAAAAAAAAAAAAAAAAAAAAAAAAAAAAAAAAAAAAAAAAAAAAAAAAAAAAAAAAAAAAAAAAAAAAAAAAAAAAAAAAAAAAAAAAAAAAAAAAAAAAAAAAAAAAAAAAAAAAAAAAAAP/9k=" vertex="1" parent="1">
          <mxGeometry x="680" y="232.5" width="41" height="41" as="geometry" />
        </mxCell>
        <mxCell id="aRxl-0q_iQB1jEvVZf7H-26" value="vs code&lt;div&gt;&lt;br&gt;&lt;/div&gt;" style="text;html=1;align=center;verticalAlign=middle;resizable=0;points=[];autosize=1;strokeColor=none;fillColor=none;" vertex="1" parent="1">
          <mxGeometry x="670.5" y="280" width="60" height="40" as="geometry" />
        </mxCell>
        <mxCell id="aRxl-0q_iQB1jEvVZf7H-30" value="" style="edgeStyle=orthogonalEdgeStyle;rounded=0;orthogonalLoop=1;jettySize=auto;html=1;" edge="1" parent="1" source="aRxl-0q_iQB1jEvVZf7H-27" target="aRxl-0q_iQB1jEvVZf7H-29">
          <mxGeometry relative="1" as="geometry" />
        </mxCell>
        <mxCell id="aRxl-0q_iQB1jEvVZf7H-27" value="" style="image;sketch=0;aspect=fixed;html=1;points=[];align=center;fontSize=12;image=img/lib/mscae/Docker.svg;" vertex="1" parent="1">
          <mxGeometry x="800" y="232.5" width="50" height="41" as="geometry" />
        </mxCell>
        <mxCell id="aRxl-0q_iQB1jEvVZf7H-32" value="" style="edgeStyle=orthogonalEdgeStyle;rounded=0;orthogonalLoop=1;jettySize=auto;html=1;" edge="1" parent="1" source="aRxl-0q_iQB1jEvVZf7H-29" target="aRxl-0q_iQB1jEvVZf7H-31">
          <mxGeometry relative="1" as="geometry" />
        </mxCell>
        <mxCell id="aRxl-0q_iQB1jEvVZf7H-29" value="" style="image;sketch=0;aspect=fixed;html=1;points=[];align=center;fontSize=12;image=img/lib/mscae/Docker.svg;" vertex="1" parent="1">
          <mxGeometry x="930" y="232.5" width="50" height="41" as="geometry" />
        </mxCell>
        <mxCell id="aRxl-0q_iQB1jEvVZf7H-44" value="" style="edgeStyle=orthogonalEdgeStyle;rounded=0;orthogonalLoop=1;jettySize=auto;html=1;" edge="1" parent="1" source="aRxl-0q_iQB1jEvVZf7H-31" target="aRxl-0q_iQB1jEvVZf7H-43">
          <mxGeometry relative="1" as="geometry" />
        </mxCell>
        <mxCell id="aRxl-0q_iQB1jEvVZf7H-31" value="" style="image;sketch=0;aspect=fixed;html=1;points=[];align=center;fontSize=12;image=img/lib/mscae/Docker.svg;" vertex="1" parent="1">
          <mxGeometry x="1060" y="232.5" width="50" height="41" as="geometry" />
        </mxCell>
        <mxCell id="aRxl-0q_iQB1jEvVZf7H-33" value="Dockerfile" style="text;html=1;align=center;verticalAlign=middle;resizable=0;points=[];autosize=1;strokeColor=none;fillColor=none;" vertex="1" parent="1">
          <mxGeometry x="780" y="285" width="80" height="30" as="geometry" />
        </mxCell>
        <mxCell id="aRxl-0q_iQB1jEvVZf7H-35" value="Docker Image" style="text;html=1;align=center;verticalAlign=middle;resizable=0;points=[];autosize=1;strokeColor=none;fillColor=none;" vertex="1" parent="1">
          <mxGeometry x="905" y="285" width="100" height="30" as="geometry" />
        </mxCell>
        <mxCell id="aRxl-0q_iQB1jEvVZf7H-36" value="Docker container&lt;div&gt;&lt;br&gt;&lt;/div&gt;" style="text;html=1;align=center;verticalAlign=middle;resizable=0;points=[];autosize=1;strokeColor=none;fillColor=none;" vertex="1" parent="1">
          <mxGeometry x="1030" y="285" width="110" height="40" as="geometry" />
        </mxCell>
        <mxCell id="aRxl-0q_iQB1jEvVZf7H-37" value="build" style="text;html=1;align=center;verticalAlign=middle;resizable=0;points=[];autosize=1;strokeColor=none;fillColor=none;" vertex="1" parent="1">
          <mxGeometry x="860" y="230" width="50" height="30" as="geometry" />
        </mxCell>
        <mxCell id="aRxl-0q_iQB1jEvVZf7H-38" value="run" style="text;html=1;align=center;verticalAlign=middle;resizable=0;points=[];autosize=1;strokeColor=none;fillColor=none;" vertex="1" parent="1">
          <mxGeometry x="990" y="230" width="40" height="30" as="geometry" />
        </mxCell>
        <mxCell id="aRxl-0q_iQB1jEvVZf7H-40" value="" style="strokeWidth=2;html=1;shape=mxgraph.flowchart.document2;whiteSpace=wrap;size=0.25;" vertex="1" parent="1">
          <mxGeometry x="835" y="222.5" width="25" height="15" as="geometry" />
        </mxCell>
        <mxCell id="aRxl-0q_iQB1jEvVZf7H-41" value="" style="sketch=0;outlineConnect=0;fontColor=#232F3E;gradientColor=none;fillColor=#ED7100;strokeColor=none;dashed=0;verticalLabelPosition=bottom;verticalAlign=top;align=center;html=1;fontSize=12;fontStyle=0;aspect=fixed;pointerEvents=1;shape=mxgraph.aws4.container_registry_image;" vertex="1" parent="1">
          <mxGeometry x="972" y="219.5" width="18" height="18" as="geometry" />
        </mxCell>
        <mxCell id="aRxl-0q_iQB1jEvVZf7H-42" value="&amp;lt;/&amp;gt;" style="rounded=1;arcSize=5;fillColor=#0065FF;strokeColor=none;fontColor=#ffffff;align=center;verticalAlign=middle;whiteSpace=wrap;fontSize=10;fontStyle=1;html=1;sketch=0;" vertex="1" parent="1">
          <mxGeometry x="1100" y="212.5" width="20" height="20" as="geometry" />
        </mxCell>
        <mxCell id="aRxl-0q_iQB1jEvVZf7H-49" style="edgeStyle=orthogonalEdgeStyle;rounded=0;orthogonalLoop=1;jettySize=auto;html=1;" edge="1" parent="1" source="aRxl-0q_iQB1jEvVZf7H-43">
          <mxGeometry relative="1" as="geometry">
            <mxPoint x="1360" y="253" as="targetPoint" />
          </mxGeometry>
        </mxCell>
        <mxCell id="aRxl-0q_iQB1jEvVZf7H-43" value="" style="image;sketch=0;aspect=fixed;html=1;points=[];align=center;fontSize=12;image=img/lib/mscae/Docker.svg;" vertex="1" parent="1">
          <mxGeometry x="1190" y="232.5" width="50" height="41" as="geometry" />
        </mxCell>
        <mxCell id="aRxl-0q_iQB1jEvVZf7H-45" value="push" style="text;html=1;align=center;verticalAlign=middle;resizable=0;points=[];autosize=1;strokeColor=none;fillColor=none;" vertex="1" parent="1">
          <mxGeometry x="1125" y="228" width="50" height="30" as="geometry" />
        </mxCell>
        <mxCell id="aRxl-0q_iQB1jEvVZf7H-46" value="" style="image;aspect=fixed;perimeter=ellipsePerimeter;html=1;align=center;shadow=0;dashed=0;spacingTop=3;image=img/lib/active_directory/wiring_hub.svg;" vertex="1" parent="1">
          <mxGeometry x="1225" y="217.75" width="31.62" height="21.5" as="geometry" />
        </mxCell>
        <mxCell id="aRxl-0q_iQB1jEvVZf7H-47" value="Docker hub" style="text;html=1;align=center;verticalAlign=middle;resizable=0;points=[];autosize=1;strokeColor=none;fillColor=none;" vertex="1" parent="1">
          <mxGeometry x="1175" y="281" width="80" height="30" as="geometry" />
        </mxCell>
        <mxCell id="aRxl-0q_iQB1jEvVZf7H-54" style="edgeStyle=orthogonalEdgeStyle;rounded=0;orthogonalLoop=1;jettySize=auto;html=1;entryX=0;entryY=0.5;entryDx=0;entryDy=0;" edge="1" parent="1" source="aRxl-0q_iQB1jEvVZf7H-48" target="aRxl-0q_iQB1jEvVZf7H-53">
          <mxGeometry relative="1" as="geometry" />
        </mxCell>
        <mxCell id="aRxl-0q_iQB1jEvVZf7H-48" value="" style="shape=image;verticalLabelPosition=bottom;verticalAlign=top;imageAspect=0;aspect=fixed;image=data:image/png,iVBORw0KGgoAAAANSUhEUgAAAOUAAADcCAMAAAC4YpZBAAABHVBMVEVVtb////8ybebJ6ewfv894wsr2+/tEsLpXubxWt74xa+dMsr1pvMWv2d4waehWuL0vZ+kew85Vgekewc5bhuqYz9U3u8kzZejO7uwUYOS43eFUs8Dr9fszb+U7gN1CjtZRrcQ3eOEhuNEnothKns01c+NOp8dIm89LoctNpMk/iNklqdZQq8U5fN9SsMI8gtwis9NCj9U2duIgu9AkrtQsjN5Gl9Eqk9wonNpAidgrkt0lq9UGXeREk9PS3PgpmdvD0fbg5/p8nO2qvvNbi+eZv+pznujw8/2yxPR7m+2MqO9zluylyeq93+uHr+mS2N9gy9ee2+Jyz9qjyOqPtem86OiZsPFbl9xvqNuq2OyHyuV9qOvf7vi61vJelef6cHRLAAAUBUlEQVR4nO2de1vbOBaHk+CCLVrZbihJyiQQQqBcQiBpKFB6A3rZXmY6s9PZne1Ov//HWFuSbV1ty5YTnnn2/NeQWHp9dI5+OpLdWn3+du/+fKy2HLVYmz/k0kptPraySMr7c4JcKOXcXLlQyrm5cpGU83PlIinn58oFUs7RlQuknKMrF0c5T1cujnKerlwY5VxduTDKubpyUZTzdeWiKOfrygVRztmVC6LM07PV4nY3KPO48t6j4nbvTlDmGWM/lbj+Y96bi6DM4crVR2UauBOUVbvyTlBW7so7QVm5K+8CZfWuvAuU1bvyDlDOwZV3gHIOrlw85TxcuXjKPK5czr5Mui2aci6uXDhlHleWjcqFU87HlYumzOPK0lG5aMo5uXLBlDlcuWrAlamU96q2+2KpQjQjDfEXpSj/xvZ/yr+P3TFKx3FDcxyzl71LlI5rH51tjsfji7PdgNTgle8OpWNvbXY9CEKDEBwc2eY47wqlYx/1PNBIDHijfWOcd4PSsXdHDCPm7D8xxHkXKB37SV9gRJxwsmOEc/GUjr0zgSDm8kC3AeN/N+Bwz0AeWjSl4+51YYzUPd3fsG27trvZoD48c9ySrSyW0nXOYkYAhzs28Vswa9LwjRclORdJ6dZexC4TUk0wkIfxwIXgtFaGc3GU7sYpSBgl0waTlADc3CjOuSBKxz6+SFKO15NLAMfeH1GcF8dFE+5CKAOZc5D03htvKXvPiAXgHai/mWoLoAx6PqZ6nuEh/o4UEn5zpwxkTk8v2rjRPdrV55wzJRNpELzImTndjU2aU1vgzpUyyJqThLGhM9sHsw6VkSeaAneOlI69R82A3T1Xyig7roOMVhCNUEFocM6N0nX2WJkj7+TKvaVHKs5ADQ4p4achcOdEGTiikWPArd5/vBTYPVV1OlT2RYb8XCjZoFImj9XagyVsj5Wl22Lpaw6UNpMge6qJYHX10VJiD2pqTnoqArmEX9WUwWSXb1IPApI1ZXhysiKP8KuWMhAu41wCjQQka8rw5AVRpvCrkpIVoSn3PAlI1tThGY4ROg4yhF91lFyeOFXGDxuQrKnDk1+6KeM9tKoomcVhsNhX50IhIPOGZzg/0cvwFOFXDSW70E8r3EgDMm94clpDXdmsgpKrWKVoFFVA5g7PsLHkhiorm+Yp2YpVakE1JSDzhycXHNKbapqSlTmpxfGMgGTtUdo+NpvoJAFilpJbB6alvdX7eQYrZWnhyU5aYmXTJKXjnGZXrAhjLe9gTSw1PFkBEghcpnGDlO4Rle7S5UjugGTtUVp4spUTODmm2jdHae94OaXlqk5Acpzpx0yoiAFwNxm1xijdnVZ0+fRlgnZAsnYvgzPJft5ufKdNUTq7GBJk1PqLBCRrDzKODYULduxPuBVhGvMluX/j9GVticGaWHp4hpwXKHjAMOqLIUr7AN0+78xOZcyWczk5M06BkRwBT12TlM5RKxsyn5zLaVnh+QRjbpikdJErwTgFMm19VcQywtPeDHMQ2HQNUtZQWgMpX9CSc/ksPTzdLkoUBimdHXTjTsusrwpxpmn4vbBPEM8mRijdi3DAeluaBY/y9jgtPNGdf2GO0h6Gg6Mrj0rTAcmaek1mj4JbD3q2McqNMKGBA+mArSAgWVOVTJxTlBFdU5TOExQCe5IBW1FAsiYfts4+6tWRY4jSPVWEZXUByZoiPMMRBs9MUaIIiJI2DVllQLImC097guZw1xClg7JZj0s+lQcka2J44syPcqIBSmeXytmRzSUgWeNLJngW944NUZ6BZP4ljKXXV0WML5kco8DccYxQumNESUOWYWwHVvS3bHjaocgDF64RShtp2H4clqXWkO3P725/vC2MyYQnvv0T2wjllkep/7IFj7UOAMAbfil+hSQ8nTMUmDUTlEQWP0EjtmRAth9CUlcpcZE4PJ0j1LN9xwAlkepovVqy4NH+OSoDwu/FB20YnqRrSOOdmqDEUn0YhuVqydmjPWzEVoZyaQk/z2b3QsE+sg1QUlJ91fqlHGYnhuyUucwDax11zXlBBHtpSlqqr1qWVSr3mKH8akWUkWAvTUlL9ZDS+rpgyt/CTqyT3hHBXpqSSHU0WyJKy/rNACUoGJe/4i4Qykiwlx+xWKq7FKVVNDzb3RhyrRDlg6gDhDIS7GUpGakeUxYMz/aPeGPwXRHKrxZHGQn20pS0VKcoC4Vn+200X3q/61P+QrUexSUR7GUpGalOUxYKz78iys6fuj/9lWk7oiSCvSwlI9VZSsv6VberX6L009EUst/WLSllJNjLUTqMVOcprXXN8GxHcenpDdivQsNR/5BghyV9yUh1kVI3PNsTgtnVofxFbDamJIK9HCUt1aWUeuHZvgXaE8mvskbX4w5iwV6OkpLqKkqd8IymEnCbl/KbMFhZSiLYy1GyVXUFpbWed63Sfkcof+Sk/E3VYtRBLNg7pSi5qrqKMnd4tt9BHVEgCUiBEgn2zpsylFxVXU2ZU/S1v2NKmIdSGpA8JRbs3ocylLRUz6DMFZ6RL3NQPpYHpEBp98PrXZcasZRUz6S0vmaGZxSX2ZSqgBQo3U0k2EtQ8lX1DMrsWSValIB+OqU6IAVKLNg770tQvmCr6pmUGeEZDdgMtZ4WkAIlFuze6+KUfFU9B2VaeLZ/T1bRV/9UYSpmSCUlEuzwY3FKLNVHSVU9D6X19ZuK8uf4HHgD/qygzAhIkRKd0gEPC1OyUj03pSQ80d7Il79uk9dsgHfoQx41MyBFSiy1O8UpGamuQUmHZ0Dy5fPv79a6nQ77TpgOnHz6/vZPmjRHQEookWDvvCxKiU9sRVJdi5KEZ0D49ke343lA+rIUAL2Ot/b98xImzROQIiUW7PCmKCUr1TUpg/Bsf3437EhfBsOwBqhrP39p5wtICSUW7LdFKYUDMBqUvv90FgzKDMKEtDN8tu03C1Hi+c4rSCkegMlN6U9fDTOdyBn0+oOmX4SSFuzalJxUdxwnJ6V/MvPyepEFBZfb+TjXmZ6icuWHYpSMVLeP9/b2nTxDyj/p6boxMeCNT/Jwrtdc243eo0MLdm1KLNXReZqaM25BCMGrzB6UYszPuX68OQSN8RbqHC3YtSGxVEdno9w+HoHeOL0D/nRWjhFzzqYZnP4ANQNaaC6nBbs2ZVJVx/IgNNhPG7T+OSzNiDlfpeZb/xV56oNM5pRg16WkpLrbizsP+srb7J9MCuUcmcHuU7U7/VdRiZ6sCinBrktJSXW7S7XfUzTvP2sJnS1hrZmlcKd/HkOSFT4l2DUhiVRHp7ht6jyAAtPfNudIAtCQu9M/pO4m3tugBLsuJSXV8eCNMQ/E1kk6SO01dxeAVNvS1nomwfQH9JDBU4BzFHoECXZNSlqqO/se3bo341v3Z8wXREAPjmaDEfPZbDYCXnq2gv0pP2oZT8bKLBHsmpSMVLfHjCO8SwazafXVozUgHF4Otv3AGEp4GHwyPXzWTyMFDW7u9A+Z2xk9A+XeRoJdk5KV6u6B2pvN7a6yn9DrDaY+nhb8CfOXQfhh0/etwxlQg3rPaUx2uAY3gTyE6dwgkadNyUt1e4cJIyoF+ScqR4JAf1vJxOd36T/C8+gPAenhWCl8W4MEM5kn8SW60ZOmKy/DilIo2PUosWqizqo7Gwd0ggFDok/8p4qQDCTMCTO3+4zDIK0Wm8EipqHgbJ1HX2yO6aZA6yJ+cfLKckgZCnY9Sq6qjj7aolsBQWCF3XsuhwTwkpdpTQYDXHIR5w+6ck4vvB9BEG8P6bvs9baSzq3U18LAvNYesZRUjz+zn9KTIoRe46nck8ATGANjE4eQqJv+QO5P75m/3R+N6J97feb5+pX6H+Evu5qU0rPqtdUmr1TlacPryZaJ2yylRPg3A+0muyA8gExWAI0B+1z2yvJrFJjvNSnFs+o1VCvwp6PUqRH14VAqWk5YSrmEmvZkl2fRvRm3ig4o36PAfK1HKZ5VJ5SsjJSZN2vKBSg3uEdyPewPMtY1SPkJlPUwaAPBrkXJV9UpymDqaKTM41DuyGA4PmeDbqJS/dMUjRFGQ6jiRcqPEAl2HUhaqguUodZRYQaaTLViah6yne+ql3ApqxsPT0Ai5QckZfUo+ao6QxmY4m6LCpeiHLA/AikLyENVUECiEUTKNyj9vNShFKrqHKXfk+fWtLpQ85yl9FK+qwyKIfmRSFnHgl2H0kZDcsg/VkpRypzpDVI6HsgzjjLlu1ZzKtXG8SQrofyEdIEWJbpkj39Kj6rHTiRdUOUdQnnJzQfbad+2rL6EsjVoKilDXQDWdCjxiSjh4dmEsrktcWYG5YyjPEn99nQkNgDiwSKhvEFJVp9yrKb0x5IB5Y1VpRrZT7ynaZDSWRPG7jdCiUZso6+My6ZCvqZW3riMBZ8rb0nTGsuTbD/Flx+1RyzOPrz0obLPUNoJRamG/IYLNHioovSfqmSHd67OPmva2QfPJOETVKxF3ThXqhPYV+3n8HcGDlSVyEu1KABKX6IVpt5MglWB+N6QqCMpShNAxXzi8/fjXEoZLCNTBB68VKmCG1zG06HEVZ+Gd8Q5c53c7NTSqyIJ+dytgVIJkbkW2FZQoqvrKTy8i90AE6kzpxlrL3m9uMn9ii8WoO9Y0oUX/SusC7hurdT/gSSp5prE2cXvz7mQrEr46V1isiTE3xuxWBDo18xKNHEm1133Bp2XutJcRRNnNrw9bs4Mx2yOrQI4EZLQNk/JFwuaGbVr8rOwsi/4BEGG+0F6lLVjsmMphGaT06Pyuw8EUXvCU3LFAv9EnnZ4eeBNLe7NBc4xOUFdYJ/kCcnn/MKES7BgPJWD8klIEBJssYDarmOs9YpbhoFLLvXUXFzcu3pTZGfvFL+giVdAG0zxOLi1zelQiskmIX4RnayiEKOqQNAa+P6IubywiLCxdOx8KHZ6AocmPGAxnS26PzDMM82RootUGuUX0UyxQFnsQRsIzFgHXS6E7Bfowl7B0xM1pyvNQPFYRpS4lwrdSSUhUd/HS69mU/HzBkCbQYwChscspbOPehMdqixAGWUgrmBJ7h5qk0zt/jNFiT1KQj6ffJIk6z9V7CaB7naTT1wtrkoT9REsFz/rHGcgDjP2C4zH3LlCfHo9y282/RPJn+CsGW74qWpZYBilryQy4SmXJRwq8xR+BgF7DUy4gCdZjdYvyooUaDwbnMuHJACzVzPVLhAcxSm6GW3GCK/fIbmjU+pJC2UGIjMUXdXwT1S6BUBlIVm97Q5p0RCtZxSZBx6UfZYWe41/dyNWgICZ8tJ2a7WN3e4mSz3IvRTLxREF+m5ZyshrXAZyzzxhidicTkxhtrgFCxLBrSdcso/mtI3yz7jvkxfHchncPoBJ7ok5FROnrgnyMJxM4CafebA+8Qy8laFmn+EMNOQlRx+Km3P+QQ7BnQ35nL9woCmEXRuykRxO5ybeYoTnDb5y4GzIahqqiVPHgOxQZavLd2sTx+qFmbcY1VwcbvAFn4FkdWPlxJmbMdIC7GX73OKIvGcae9jIm+JIBmpx1S5nXexN2lZOPsiJ7KKWxQmTKPNgD5t5syquHAgZqCbHVE6cOYzSAozxq60azjxkbjH0LuAz8rpoRemStRITpyc54yeDJJmntWP0XcDhvNGQKCwFplVw4vQkFS9kfHcucOaJ5hZTbyJ38fazoJYVjyU0R0Uw49J5BqS7h4dWPLcYe6v8Bu4Iv/KRhyZ/6C4npGr/kxuv+KAovZ429lZ5cmlBSyowFftFaSY/GyNC1sgNp3pi7n97iIYJvy6Qh6ZQSs825cYJ1x7eqmJGFUW5WtKSDMT9QU6p2hZTUyo2weTd8E6pblCUD8ra4zWcgf71mPuDdMhq63Yozz18J/6Nq/6fvtGfJpT18oYrr9ETnbEtSVwplOyyTfoQxxLXFjrxEszcih6aoMRNJM/NRyY8BOtPC8wksl2wX7iWlslyl++BScr66yt0J7v858xjsL5vDbqpPArzLsPf0vaVb+ghLmbxo8ksZf0PPGBu+c/jcPT97fNRsQcTw8Lm6PzEp05I881co6Ds3Cj7Z4ayjp9T7/zBfbyMEZuHl92MxycyOKHXnR1GLv2Ja+UD3tu6rivNEGUdK/Gr19zHS1bgxJ66WqdHOnoVuNT6xrXxEsfLw7raTFG+JxnoDff5n1nPwGiCNsb/4VsmZXRV5jFJGWWgBv/5dxMln8Sg4LKHbBm9WkqSgeAa//mt0efZwDJ3eXR0gCqjV0xZ/4Q11kfu42X5PmYxE1yGjw4IjVZHWR9yuxPE/ttJ77mGCdfOkXlMU6oy0F9XhiA9frJ4jxdEwjDmzSRldGeFRn83403RZcMcmSc0o5QkSsTe/DCRaMW7hzNBh5+kRTNLqcpAdQM7JUCIhHyZJzTDlKoMtHxbdtDC7hvumjg+xKlLYqYpcT6QhMpbWOLNDMDrCB7DuU6UITIzTUnusERwLb+9hZ0Mu5J/3Li9EbMoGTVv8nTKOKUyA4X2U6YtS0zaDM4AwvJAbuYp69e4wp2yEDJgWE8KSz2FVUBJ9HPKora84bUBFJbtCquC8j1OM+oCRfkWcFQIJRiVVUFZf4MzkLLYVNrwml0opymtEkpSo1AWDsvarbwwobZqKEm9CX6q5OJ6mSe0iiijDKTRk9xGilk6d7AqymV8yEyULKXt5ko/GqqijDPQwzdGL/ueCGK9zFYZJZnSgqXEp9dZi9zc9vK6U2iWqo6SJImQs9NdM2APh53o5Y9X6cUswSqkrP+RVEKACYuvpgtZKWX9de4Xb+oYBNqiqlLK+vtPV6Y54VWBtF0tZZBqr4Ngyn5lWB4LrgI73scisrFqysBe3lzfPjRht9c3BRcA/wOde7LY1nXItQAAAABJRU5ErkJggg==" vertex="1" parent="1">
          <mxGeometry x="1360" y="230" width="43.72" height="42" as="geometry" />
        </mxCell>
        <mxCell id="aRxl-0q_iQB1jEvVZf7H-51" value="minikube&lt;div&gt;&lt;br&gt;&lt;/div&gt;" style="text;html=1;align=center;verticalAlign=middle;resizable=0;points=[];autosize=1;strokeColor=none;fillColor=none;" vertex="1" parent="1">
          <mxGeometry x="1346.86" y="275" width="70" height="40" as="geometry" />
        </mxCell>
        <mxCell id="aRxl-0q_iQB1jEvVZf7H-52" value="start minikube" style="text;html=1;align=center;verticalAlign=middle;resizable=0;points=[];autosize=1;strokeColor=none;fillColor=none;" vertex="1" parent="1">
          <mxGeometry x="1250" y="228" width="100" height="30" as="geometry" />
        </mxCell>
        <mxCell id="aRxl-0q_iQB1jEvVZf7H-61" style="edgeStyle=orthogonalEdgeStyle;rounded=0;orthogonalLoop=1;jettySize=auto;html=1;" edge="1" parent="1" source="aRxl-0q_iQB1jEvVZf7H-53">
          <mxGeometry relative="1" as="geometry">
            <mxPoint x="1660" y="251" as="targetPoint" />
          </mxGeometry>
        </mxCell>
        <mxCell id="aRxl-0q_iQB1jEvVZf7H-53" value="" style="shape=image;verticalLabelPosition=bottom;verticalAlign=top;imageAspect=0;image=data:image/png,iVBORw0KGgoAAAANSUhEUgAAAOQAAADdCAMAAACc/C7aAAAAilBMVEUybOX///8tauUlZuQqaOQjZeQfY+QZYeQOXuNUgOhWgugMXeMXYOPy9f38/f/b4/no7fuZsPCCn+2tv/LH0/bM1/dskOqyw/O6yfT2+P7s8Px4mOza4vm/zfVAdOads/ClufGSq+9fh+mKpe5Keud8m+xukesAWeM6ceaMp+5dhukAUuIAVeJIeOdBQz5tAAATmUlEQVR4nO1daXusLBI1Cmi39r6n9yVJ587k//+96U2loEAKNXeembe+3RsbOQLFoTaCt/8DCf52B35D/gHZuLwvz/NOZ/697P3qa38T5LSbCsbCkEUiPc1+8cW/B3K5i1lQCEsu01979W+BXAQiDICE8XX5Sy//HZCHSAS6hCKY/MrrfwFkfy84AvEhIjr02+9B6yB7x8wI8S5cjFZt96FlkO/nNLJBfMDMvlveUVoFOVynrAriXaJ0/N5mP1oEOZhXj2IJcz1sryetgZydEqdRzIWl801bfWkJ5LSTkSA+YCbdlmhQKyC3P3SIT5jt0KAWQC6ucVgNCJcw3rVAgxoHOQn9IT5gimDRdJ+aBdnfc+vO7yaCHRrtVaMgVyM7uXEXLvZNsr3mQPbOifO26AAzOzZHg5oCOfxw3/ndpEEa1AzIwWfTEO/CmqJBTYDcnNwoqg/M+aCBDtYHOevS+BsRZvKnPg2qC3J68SM3BJhZbRpUD+SyBrlxlzDbbf8ayIlmnGoNZj0a5A2yjxunWhPB/I1eniBXI7Nxqi3xp0FeIHvfiTdEEcfev73RIC+jlwfI97H/zs/CyWBwYN4KOUrPHjSIDHK4rkFu2OUx4VY7f4XF0g8yDSKC3MxrkZv4RbrfkxqNROknkQaRQM7+1CM37Jy3tK7XTnoiGb0IIKeduvxNFHv6oqZuZlmHwPacQW53We2dXxQd29beY1n240yDHEHqnrd6IKdx/dbC+OpIg5xAHlgz5EYUTHvZSINh7EaDqkHaPG9E4UWX9o01yR1oUBXIVYXnjSTROG+2nnYFwuNK358d5MrB80aQ8JI3fG2w1dvG+W2HaQU5adL+dheRt1yHDCASZVYVZAP5mTXblSBIXl/8vfGWsw8/kKfmz4vZi49tGthBFBFzH5DrFg6M+UZZnwvoEp+NUIwglw0vm4eIl8tq0saJOzUSPSPIVg7++UZ5aMesQAXZTjf4y101asHefpuwJhVrAtlGJ27TddImyPCHBnLTxopseU3ediiDzcAAsqVFw17N99r5htwwXw0g563Y/kVhthg0v1EGMjd2AtnKQLKwfEH9EzgmVwrIYcPTiUUiS1lHol7znziJedQw1AT3TuMg65pgZGEii0+j7UA79vVmi/FPKpoEGuP+LxzkuCkVfxvB+cRmQFzNjruEN4UzOhJANnPcYyL+cHEtDg+Xhs50YccdZC9t4IUs/eMeXDUcsUbcgKk7yCpbmkN3eHImWvO3Tj5rZn93jBqdUZBH2+RhGbuIis8eZT4x15UGepZd5zvrp8jJsQPIjqWdqHPXI7Mfi/5l6dHTkbjp2EwG8fw+OYZdyxAw9OiMgrQsSdZ9PTM2Tunks0aQ0TYwnqfTfJRsYyCwRjGQNuNEVuwHI/yj86BmSMooxZdCWngFbP1DOToG0sbOWfnYN/bN0+96EG8yvKANS+TbwsdQjo6B/LRMh538nPYxItZIHPlIXy/ZSPq7ZeGiHB0DaeN0ifzgSXlSnBoK4NyoDvdYniBWFy7G0RGQVnYOpwNEme7N3R5uR59Mos9D9rmfmhVUvwtazoAlzmpXwDg6AtLuceKgkbnUl8RE4VbLD5aIiKXSOK9SxuPkep6axn4sfeoELHS71QLj6AhIOzsPA6C/1rmmCznOw/vL0+2k8XgEcK7nsrsdUdaGb3MoFiacIVO79R3j6AjIq53NhAmYsS8lwUJ07g3GiSiWV6SDvP8yZiP0GLh9tZwCCvxdwasxjq6DrGbn4iLr0FmYZpwFWD83J+AUAzpB1ixR+oF9olkaxCLryjNnySpPuom+AHSQ02oTfpjM5U713g4RgnGgJDLBbwxDeaJ0jJDdWQqn8mbn4F5AOLoO0skmyhKLJn1I/0ON+GEn+e9d9a9ZVZ7ErUWX0xjC0XWQ6tsNInbWiKGl0L4VW8sPnLTXVLS45W4Ha4Sj6yBdbVihZVvszxEVCMkI4lAP05GpwdvzzrY1Xg2S4DqMT1pzTxmgEYJQuaMblegYjqG9nbtpTefoGkiK7Ty6qL9+yALXzxyMPH4wZxwlv/2IYOzWOboG0sbONcmwY9W3YWIJEHNjCnJJsTirCcVpq3N0DSTJ4opZG9amDsEvbPT5pEib3ySvhcbRVZBDWsiC0IZyEJmUoABjtDSBFDttXU5onUrVTVsFSYwHY8iqNOlB+EEMFkFMw/aJsSIaR1dBnmlW3hSjY9sYnV2QiszQrxkF2F45pblmNI6ugqQFTgt8Y+t1MQQZ6D/qvEsM0Tg0T6LG0RWQK5rtPHwzyAFhYBkYdWTxM2GKYCU6bRPl5wpIfBKZJDb7AQZXTbEkQKH0NJCia04LPZKUvsrRFZCkiAVjIMJDxuqkgH6KlTI4IbZ1FNInfXx1Z1NAOrLzp2R2l9WUw8YUuy/8Bvxqd52QghhUjq6ApChr+0DeZHWCygX+FdrAzDFjL6ENpQ0kKbBPURMoHZP0j/pNpJYijtFD2CAp1lnh6BAkKb4GqtbFv7Bw8GF5eii8KC+5FPizOWayG/8LqA91DVtF4egQJIWdw0PFbfYlR6SrpeFJ5c35qZklaPTNXDC43VFc/Mq7IEiKboUM8T6bYnD0z2XGnq1mynyePJcGv2Aap9/hqmIjBYlBjg5AUtg51GD9R485eorufybh3YWg/n9HhHdXJvaT3vX+YZRVTCFjcAQASAo7h2rn8Pxl9IOe7LeXJEAI4P4nWKNmneHLsgCPq5RdBHJ0APJMWJIZ6Fb+QxY0UOVhk4drsT/yf1NS9SBHByAJE4J9yj8sz02hqF39YFvShBSs1wuhe0CVyyAp7FwA2irbF9OaVQEOUi/ggFC2SsAhZZAUdg5WNvQspLWKBh3BpGTynwYEvQg4ugySwM5D2eOshuLZzKdVoliIYqB6CIMAOLoM8o+73mHAY6haw62ZKFb5o8zICLyHwFWAzpBBEmYD2ED62lrWN0UnWf3oKOS/UzYRmaNLjVDYOWDAyFqOLh7RA++BjhG8yLeHEkiKBTeWO4etZXYlV38aYLFsgGpT1D+X1L8EkpDTGIJtSHdQ3VFyYgDhFEUAqbY7RvBDCSSB7sBXG2ZASqIFW3yUIH+lWO0kjl6CpLBzoKCNeYJcX5eDzeAmG32Qh1+GRoDl7ZtwTJJ28hKkNzs3cgihHaNnX/Fdsi9tkI3dz+QPQlIbJfMqQVLYOdijjVH5TDXc9ArtyNTTinEiCpklUlISJUpYgqQc18DnNVJKrrqidwUSphq5jSMJ1CtlD5FeUYAk2c6BMdw4Bb6UY9enBIQrxhDjmozkL0XyuZWruQBJsp2DWBnD1hN9KfaOPRgGNdV6muIh32DOk3KhS45egNxT7DtA5SGMkonkelTGcaCMlTrOq0MnFUhTMg+mmeyKLaAAie7oJgFmAVVn3BCeJvom0Vc6GGtP3CMNeaZkwgCmrbZhlfKXBUiS38gIkvEsMEU+woM9M3D4zf4CBtQfZOmXyEFSDqSm6RrF6elgJnNQgWqqt5Teci3iPIWrBsiCo+cgSfEViOJhPAnNwasPgZtcbI/H34xeAwriuEhrsuToOUhaxZFMPmKco0gk3UMlU4XWNiSYUZHngHJv7Voy7BwkLfMVnPKO8XjrlM8jr8kQj3NSZTO6yrYBYmxKztEDn08EzUTOB8fRVxnf++VcO1oecWI5jTwe/QWSWKfCkIxZJfmdE1Hiea+EZzdfICnsPJBLJBGl951x32KJb4U3wlWiEQD5Q4ps4Zl/hc7VceSfPLI0Z3JhktvRnyBpkS1ZVdRyi3Lw2c+fIAnsnPHUkM3/OzL+IuS0vxTkE2SllyFkURTxex79ad/atR5uMlyML3ESx5xHldVFXxz9CdLOzlmcXNbj79FiOiBpjOF06aaFe5PDYkNqujeYLg6j709mz/h+ccInSOtET9bkjMjh9PBxSbJYxIa8HyDLL855nLD5cUmDen+TKYT4NZSPhx4grey8IiRJkffZYXzJEpEvnDCr7HZx0GSRiNPgBlUvvGARK0F4UrMHSFtki3B1xPVmk3FXZELRC3gqtSzKHv2Aep2PnKHazIxPN+oDpJWdO73n3OX30UPaYZW6GDXU3auFJNdPp83KlmY+LkBanmJo2IoqI3PuvOXc+BKLxVhURqPdxWZXv+YgbREHOsjZsRvNN32gjCxJbEnljjMzvx7GDGyH2yC9fmg3dNr2hocd/Q7SSnuBQ/ttus7i26RkcfZvoDaNEx66pHExWnxh9Mfw39m9o5FIuwtZm1lD1B+26TtIa4EIXvrGN2MhJUMCn/nANJQuVN6o92AcT8lYbqxrXur8D2v39y+Qdl9R8kSzWlwy0BqMHzRNmcxBRZqGQjlYg9IyLA6e5qSeMQ/l+dz6BbJj54I8Go/Ol1QtmgPPlIah1Nwhb8vxWAsaNRz0YJL0TP0UPGPzj8pyISc3kHd9jnBiJTwYD1rQfJSdLIoy1RqJfyEldhRb9qySvRYgPUubQdX3jnVU8+ucH+tKqGUl0Goe8AN51ggqpisx4aX4Pdzm98jaUHMghq+epop1FtPvEZzpVu1olod+vIP0LWWt5EQhOwHIR5fmjJatik1F8AA1lSmXYgvxrRalfOuh1kykhGaVcbmJcrDRA0iUQqYjz/prjwIOD1pHcvbILUDH1EE9D6iZXKU3RI2611Y0hx9w5TmQT8L2AGkhVg5NlDKH46FOyq30EdTkIEX5qdl8nmrjpbxcLAOWNhRiegXtqHmy4KdKmpeyC8IKI8hKcJPXKDxB6olTbqLOuh5QYUpGKjSaqudMwGfU7ZWUeCRJ1JdA3itQeEmsdHUgTXyFtvaVFauYDGQCq8YFLz3HIJ9o+Zl471mLVNUtm/JrKX4rdVkpullyPabKel15bnGFCbw4+M89GYHKaYptQklA0RmRwgiK5BYVoy8jE0UHpDgez6bUMOU82DGB60rvqaJ885mu5eAv/CarpKBLkD3fCasaLN+DR+YKHOINsugV3fzYRZlQLQnemrVc85Kdylf5CNUc0b8X/IfpBuhJRzkv3tkl32l5JRU1kEwiK2jZGEdzphTCdAvHKA1hSugWbTqGM5MHiW4289zCQZYbsDh6XkcQ6cVhNjAS3xiNCx46IiUx0AqA1QJZIXwNEujuIkK3rfbBtDM5TwXYZt9197Pv5IIKAYLsee5Isb24ojntOrabgJZ+aiJksFnFQI4pQRfJrPkuZvNxZLUeG0K2K0VlhaoXYOJ5IMksY4laRvL+WLL0PMdRZxOaq+PD83Qam30eNsaCV519iKF2UaVoFiSkRtbFk/Eb75dZnRJDsfOQxWnHFOwy8pxT0R+tKR3kyrfQe/Rj6m9/eryksYhYXhY6ZA8H3eV7avRerj0JWBi4FOczm/yrhOkliORml6OPPzsu4ljw3Z/1aLmxaNbexfdTY6V6MfejJyMO6iUVyjJFQpgde4DVdEB9rGP/a207Tdxcf/YuNh8fsfZwR7KtPrVdWOIfrPWSjV7lxlUiPBwaB7mqcSeKQKsjOEvPrWIkKiHpvhB/5RNQE9G0N5sSRBwko93hU+PuMKbvUyTpeg+kMS/eGNxx9r+prR5Ib4yGqmQ2kN62TisdrRbvm3WQU201yL7LjRmYlB706cE1QHlb0ghfpmNQOnaQvhYkKaXvKtIukuujSH/6IbKyH5REUEkyy/yxLSC/41xRbX1yp/r3rK3z1tiB1WzfTePobkDMjTJ+F4uZryysAPl29FA+/Pj6cXlbBBNZND8uZkOZrL5vtvv1LhV5SbSwqMxDq1H3lNga92VXhSf61MkdxMpkZxGPk5QHl06327lc2T1OlMO7agqFRX9p9GlC4ACSrnyKIlGGEKLwdsoK8UYLU8iWOmERoygBJFmhF7l0eqmMaik8RFRbq2bepoE0lDgw9zN/3cJnOXvqHqvScQH5NqL0tszhJVSEKaS0lpJIZWWV+GqQFJ9eSTr8AkpKrvTp/lJeHZHrQDTdPS5liQhaOmbx+2JM+s4gWVVFSzeQzhl5UoUIQs0uSSQ3l/Oa5g7M0eXI4OrTK2OofMOfpBgvxzWtxp94g3QMKJDir3wD2SSnplvBLjdji9vhz0kPSFU6SGXxJZHs6U6pktytGJfjCdcloKCM8vW/vLecrw53s6BV2GuAdAkoKHWj52kpkKubuUxX7pj05GqrcFE++bG1zrW5RdyLw9Rxtpg5G2QcfL7Rc4W8+5oUHsKeKB0oiFoipQGQLgEF/LIdzI41r2BOxtPZ5Fo9kGqxm0ZAugQUhCLW7+6hSiSEw3W/WihYMyB77dyn7ilaAapmQHoHFLQhJDM9yRLsG1DQvCTutyNTQXoHFDQtbimHniC9AwqaFaq7hQhy1dSl6nUkDIk1J6jemTo+vaZEzQ9qHOTb4q8rHzQsoFmQNQIKmhE9FqkFkDUCCpoQQ1hA0yDrBBTUFiwWqQ2Qf1X5oNeGtwGyRkBBXfErl+/n4PcMmq4t5rCAFkC+df8KKbDEjbYB0jugoI7YwgLaAOmdklJHbGEBrYD0jg/3F/87Ovwji46esSi+Yg8LaAmkT0BBDbHEIrUJ8u03lU9VWEBrIIk1OmtJXCeWrVa03yb5pbEMs1rhpfVCGofhr6zLqnsb2wV5v5m+dZis+t7GdkHeBvMjfSR8UIS5C4+zcb1hbALkPcpx9NntyAL/pUnXWU7rPbn6ISINgPzvl39A/q/IfwBQRh/0sIBNRgAAAABJRU5ErkJggg==;" vertex="1" parent="1">
          <mxGeometry x="1480" y="227.25" width="49.01" height="47.5" as="geometry" />
        </mxCell>
        <mxCell id="aRxl-0q_iQB1jEvVZf7H-57" style="edgeStyle=orthogonalEdgeStyle;rounded=0;orthogonalLoop=1;jettySize=auto;html=1;" edge="1" parent="1" source="aRxl-0q_iQB1jEvVZf7H-55">
          <mxGeometry relative="1" as="geometry">
            <mxPoint x="1430" y="330" as="targetPoint" />
          </mxGeometry>
        </mxCell>
        <mxCell id="aRxl-0q_iQB1jEvVZf7H-59" style="edgeStyle=orthogonalEdgeStyle;rounded=0;orthogonalLoop=1;jettySize=auto;html=1;" edge="1" parent="1" source="aRxl-0q_iQB1jEvVZf7H-55">
          <mxGeometry relative="1" as="geometry">
            <mxPoint x="1600" y="330" as="targetPoint" />
          </mxGeometry>
        </mxCell>
        <mxCell id="aRxl-0q_iQB1jEvVZf7H-55" value="kubernetes" style="text;html=1;align=center;verticalAlign=middle;resizable=0;points=[];autosize=1;strokeColor=none;fillColor=none;" vertex="1" parent="1">
          <mxGeometry x="1464.51" y="272" width="80" height="30" as="geometry" />
        </mxCell>
        <mxCell id="aRxl-0q_iQB1jEvVZf7H-56" value="&lt;font style=&quot;font-size: 8px;&quot;&gt;Service.yaml&lt;/font&gt;" style="strokeWidth=2;html=1;shape=mxgraph.flowchart.document2;whiteSpace=wrap;size=0.25;" vertex="1" parent="1">
          <mxGeometry x="1540" y="343" width="80" height="48" as="geometry" />
        </mxCell>
        <mxCell id="aRxl-0q_iQB1jEvVZf7H-58" value="&lt;font style=&quot;font-size: 8px;&quot;&gt;Deployment.yaml&lt;/font&gt;" style="strokeWidth=2;html=1;shape=mxgraph.flowchart.document2;whiteSpace=wrap;size=0.25;" vertex="1" parent="1">
          <mxGeometry x="1400" y="343" width="80" height="48" as="geometry" />
        </mxCell>
        <mxCell id="aRxl-0q_iQB1jEvVZf7H-65" style="edgeStyle=orthogonalEdgeStyle;rounded=0;orthogonalLoop=1;jettySize=auto;html=1;entryX=0;entryY=0.5;entryDx=0;entryDy=0;" edge="1" parent="1" source="aRxl-0q_iQB1jEvVZf7H-60" target="aRxl-0q_iQB1jEvVZf7H-64">
          <mxGeometry relative="1" as="geometry" />
        </mxCell>
        <mxCell id="aRxl-0q_iQB1jEvVZf7H-60" value="" style="shape=image;verticalLabelPosition=bottom;labelBackgroundColor=default;verticalAlign=top;aspect=fixed;imageAspect=0;image=data:image/png,iVBORw0KGgoAAAANSUhEUgAAAMoAAAD5CAMAAABRVVqZAAAAilBMVEUaGRj///8AAAAWFRQUExIREA78/PwPDQy3t7fFxcVSUlGura3a2to3Nzbp6elNTUzNzMyTk5MIBgPy8vLl5eXw8PBubm1GRUWzs7NfXl7U1NS/v78mJSSdnZ3n5+c+Pj2IiIh+fX0xMC+lpaV3dnZoZ2ebm5sqKShZWFgfHh2FhYRramp8e3s7OjoKpUQCAAARJElEQVR4nO2da3vyLAyAaaCiznmoztP00anzsMP//3sv1FZLoOe49b2u5ductr0LCSGEwLxHSevf8nW+H23fDofD9HD4+tiun9rD3svDbsgecM1JZ32YQSRBEEgtQRB/cll8PC3H9LclRvn3+hFCBD5LFS71N8T7ftgivTchSn8+5eoZMyAsoNloSHd/KpTl6KTaghfDuImvcN7nROpDgjJ8E6rHlMRItM5sT0FTH2WyvQCUbQ6rcbrt2opTE6U1n9XluIpqm4/eL6L0t0FRLc8XZTIGr7+E0vukaZC7+LDaV+9nlVGWZwhIOUIRINdVYSqi9M4g6UG0cAjWP4jS/3wUyBVGPP0QSmv7iK5lwuwqeAHlUeYBPBZEi4D30qNmWZTJjNhqpUkAZVWmJMrokUqCBL7LjZmlUCbPP9C37uLD6FEoa7qhvaDA979HoIwHP9okV5FQ3C4XRhn+oJYkBT6pUUY/ZLgcLKcJJUrr/AudKxYfijnMhVD6p18k0YN/IUtWBGX545YLC0xpUNq/piYJlkG+65+Psv7VzhUL7HKDgLkoo0aQqBHm0q+J8tEQEmXIghyjnIPy1hgS7fhns2SjNIkklyUTpTm96yoCsvQlC+XYMBKlLzzDjmWgPDWORNmxU/r4ko7SaSCJmifPyqP0GjDGuyTd6U9DGVddZHi4pPqWaSjfvzPRKiJpPn8KyrSRihJJyvDiRiE2XuHiMF1EU6yKo/RISSR8vfZ67U867YP3wigXSpWHbjSsTVZk+ueMw7hQSBUlON+uO/bJ7LtLXRwor5QkHBLDM92o6z8XQRmTjo3mKLAhCxLAtgDKgnTxBIy1hTldg4MVG7dQ2rTWy7Q1LboWt7sYRmmVTu7IFECrV1vCZjnmoBxIG0Xs0OUnhJfH8zCEQjs4MtjjXnCm8+2CRSYKnYnRYljiq1DOgqCTgUJoYcJ7fWESz1vReRKo+5oojHa6ZRtM2mCn2X/Zo26jxHdNXl8I78FlsgMnUQitfijQdqB4U8Ih2DDISRTi8DCXLhJvSdksSbuSQKF1vtIn4d+EU4jkPRIo1DH7tFAi5RQ12Sx3FGpNkQsXB/WNEukjd5Q9daOkJg9RBtW5cKAQjl1axCmNhNQRS5jJGwp1XNV2v+7SJQyy+d8WCuXltYARc381xn3SKTcsEQppoysJDkY7LN6MPykdpCBeCI9RyC2x0QxjAAOF9G6xPY5RBHHGsOl+rQHmyb8pHbFbUCxCIVd648lVh0Js74SOWHzpCIXSx1PCA2PONQTc44akzTJJoJD7xGaU6l1ZR3gzPtpROmLHBAqpddQXN/IEx/rqaHJM6VuI5wQKcf+S5+RTRzM6M2RN64hN7ijU/cuMH1xdIn9jfEjpiF09C0auhNZSTnx1U/Epw1RycEMhjBlqQXnbn1HvDcz4y4AwThV6SSEKpTlh2P0ax+8JKT5lcDpcadUofeKVRzM78B7GQWtVhNHp0NIz4vfDEq7qVU63Jhdm8J3QEQu1kxEbE3XZb+OBkybFhKTsDHoZhxnvjeSqZjdKDlnY86ebImllYQm9JBGk3ObFTYNAOAZoT4lRjyrwYbx500FBs2S6cII/CFFoI8VoGdrsvCj2TuiIQYhC6oDJbqrSh3c0IkotQpSJRlmRLm6baUH4NQVmNteB7C2q+zLKV6OUnhuPalsUU/HpHDE1Z2HEATZz2dZWBuSffVM5YsrFYMRBKTPj1HbuUNCSzNFQngQjnc8hVXAtpaBQMtlMCRQK6RzIdL9cthHlV5DNL+CFhTEEIkHDhtuNMLNe/pGhTBjlZAW5X+6uiywDVU4CdJhH2b/MjINn50tC02WqYCK0KVFQqCtt/RQnQdAoPuwZYfgWuV9pDhFa2SNyAWHLyPQOh7zT35G53ko0xwjeGKHvYLpfL5u0K6NVcBp3Vh4YWUYAN5dQlHylXJqbiTU0T+C/M7KJlyPj4CklSxq1n9vSlRTRZWQuGDiKSfSEs/OgmDJJToKYkaG4Mw5a7k36ZqSfJBTON2QoaRkHzq1vqDNSbI+jQ0nPOHh1KAxKSqKYMvFvKpSMjIPJxb4FUnyCpAG6VrETPhNiFx7wB6jlaj+AUnsad86V8JkQuxwEcnJ4bcVXxphmXHElfCalg4t0oIXX+rtJ5YLGcXEmfBrS35n3Qb5BfadWThlJwAUlfC5Pjv2xn5D1k9o5CcqdpHDyeWA+9QECc5Ifyt5QGNSQtfu5cvIpInpoxFOjN3ftxloGSYVB6lXXEYM1ySwSJXyGPhWaUoYyniXXjT7sH9V5hjkjWCjC7tc1+xYGDoVJ+P1oIaauI6bDFPXXnpD7FdvEgDksdMLvR9lJNeNx0GPeV13bgd2v2wWFK5O9d4n/jdIrao4KOqRXO0yA3K9ET+GOfXJeqxvfECl+vZwEoAh/o5C3ob9wdvhm2wgWWYZaD6K6Bqu9xoGWfdHGJFg59pW+RkWUkA9aJ+lRvhMsFaFugt+MsyTW5OTIq6qVk6CGNlbXK0XKaxsiZ0ms1kJ/DYXL6+QkKAvDvJqhfGRSXcMDuKb9R/1FtIhRY1xQfYPVdLBRwqd70IadY//HUCkM0rMajth1sbvW5AubW/duRN8VxHhRfj9S/Mqeh9iEKLV8YzQbTDOH3Dn3nwL6uPJionbodMyzxrIACs5leB/OGnJ7MD2FyqFw7VdolBqJAGitJMvNhm+He7lEPa/qo2jfXKNU36MqLuaTZV5JgmM+NjZd/YrjdZj5oFGqz4lxod7sLcjO+RiSWSVHLLSE4frApaqyIPcr953mxJi8qjkJoQseolSdKqCEzwLXgVleocJKyaHhKkKIUnVkwZ2/wGUCkRMxq5KTIELnKUSp6FEK5H4VMh/O+VhCqjhi11SA61paNecHa3GxugPO+VhCKjzL1Tlnxd+n/Uym11HYkDrnYzcp39ujpIYrSqVRFkV/Siz4OOdjNymdHBrNIljlVrXqDpWI/mSWKC4dbIgmfxFKhXk1SvgsNyJklSgu20XiCVyEUiGghl9syXHaOR+7SklHLHY54myA0qMkyiMo7/0452OhlMxJiFfZ4wcq7cfhOj3lV3md87FQStVJuIV5b++2bDEanHFQIeTL046NKDU23F4Iq/RzK+GzqhuYUtO7xHu5h3nvPV6Weq24cwyqBUuc87FSmnufUt9RSgXUcImpylMe53ysxIifcDnuKKVqn2D3q3qOrXM+VtynTDh0CZNaxh7jjIM66zyO+VjxIFDC+rAqv7dW5+rlo8MMu5fFPdPEgyQHurSsOscVkPtVc7umlGg+VtgNSw4JSZTCzSLNDJX6mUN4PlY0Im8454b7UVR5sftFkFhvzMeKai03wiQGSkEjht0vkn2nt1KuJd6M6V6bT1Wsj4rBcZQUmqqIEtYhTCc1qRcLF610lIKhdAGGEG3Y4gCbxazEsY24loeJ8stl2IUsUVwXpzvhbk9bofWhgnPQMEq/oTXlbbGSaKxys9Rlwh4lnGEXwS4CPGtuWfmk4JUdFwp1TarHiGPS5iiY/X/oYsLqXu4y5t3mWzFXhMOFQl2Akl6cAUFnnfxmnldyF+nMBXYfxEBco4ZYODhjGynHYwyarC4pocAUlJZo6vEr6Zsy0s5fae7oknq0X+oBP01V/fTDitKPXWrmSOmvUhf/Mg7DaqIZE659fvkoxOX/KYRnHR2XeXDcomEs3BlgLoTSMBaeXiI5H8Wx4ez3JIckD6VB7ZJHkovSmBO+RKaeFEJpyPGXfpB7Qnw+SiMOig1OeYfEFjtSef7rU7EixxAXQvGWv3SK+o2kyOHQxVC8/vMvdrLU5f1KKNYGzR8UmWeEy6IoR/l3JmMwS3cgK6J4vd84GT4vO7EaivaUf9qSgSzYucqieK/wow3D4b2ADa6G4rU+f7BhICsrsTaKmvLzH2oYAYcyTVIBRfsxPzBectjleY8EKF7//HC7DAX2VFCgeN7w+aEwANuSfas6irJlq4fBBHAoOiiSoHhe+1R8gb2EABzy3XliFNUyG2oDwAE+qoLUQlE6swDCcUbC5Zi3UedhKMqajQRN0wiAc7kRkRpFSUc1TU0a1bFOo3/5t3o0iueNn86KpmpPU+3B3kqPhw6hQFEynr8DlDdpPADYbSk4PDIUJa3haAMlWkcoDP75VLtf3YQORct4eDxznSGWVZuBC6mzyHZfT1l7i8oLLUoo/c76sImy3wLpC8GVCOHLIEqFO523814ds+uWB6Bc5aXXmR8/DovBZndaXVan51l3+jbavw77VfyrIvIwlJ+XP5Qmyh9KE+UPpYnyh9JE+UNpovyhNFH+UJoofyhNlD+UJsofShMlgdKzthzF0jFzsVr/+s6lg0nnab/ez4eu8NZLv2+Hi/qxuIMw4777PolvLNvqjvv2cNJKokxSFwC3YKaZ9AAu1pdaW37f9Pk8xVH5DS5mqH5xSuwSfXeE8ecA3/and3maJfaZntp3lDfAVRpiGfjmNoseoANfw8+Ay/iy0rd2+nV960WF56tHJELCxlq2awM65MCQfyfw79tmJdxRdH2dlByfrm9uS3ehSMFgMJq/dl7n67ez3cBuFD7aavmYCmDBBXezTJRxIBmctvPOUN1y//EOwxvKEzCBDnVLoBibyB0obTDfwz+sGE4U7t/+2INVWDQb5QNS9xB/+2yWkvGuUHhyH6IDZQS4rLF1DRdK4uySLXCsgJkojOP6PvdCQcGhA/i/8WPwZ8nvmA6UDwhQtTDrGjkoE8D1EjNRxmBVlYhRDoHqINK3LdP1MYYzKW+V8xwoe+ArL0tyUcblUVAXYvF/dBU3ZXVdY4tGeQF+s0oOlL5S225WiD4XZQgCv4zMDnbhODEpQtmHfWsCuHxs/BgdXQwt/q3Lgq0VS1ZiSi7KwLd6dybKCMTJfHcRyumq8QMJjgW1EEXrZXTgggvFO4LgapxKu3OOBesvILCumT2u7AJ5MvoQi656rbLVBtc+0CuKN5P+9W5OFG95Ai7gktIyKePKYRrKTI2qdlZ0Nsp4pkZIuZmF0rmhvAdR55FC2j+KULS6HNJR1NAkNYxw7vVLGe2Dq/icyYOVdJ+NEm5G477UArsY5UW9Hx6OcErx7T4Soeh7h/9NQ1FXZ7qb8bn9n5RWiVAC5bsE5XSlNQPt9oTLt1w+xShH9akI3b2J69cxij49SRvzdBTVMit9+MrAGmrduiK8ViS9A1h7NzNRuupZtpNkpwxRdO1ExaJ7j1J8q6FvKF438E/ZKAqGKWMmsXeea8HC92QOLFkoHbA8RhZ+LLta87VzqhTfGrbvKOOAwzQHJXSPrL3X+SjeCpcKy0I5BAGuxaVRzlIrfX8HMlh6gbBOG7uj6DqKMJ/koIS+IWrbAijK4TDfYhbKxq7Ay8J6J9eTqRaqk81HAFhrEyihWrXzUPQLRkNxAZSvUii+C0U9fORe61FwIPApEQaKdw64ZHkoO4E9oAIoO4H0PgtlGliuONPF424+pnrfwi5bY6CE29dzULTVRnqfj6KnPKarkYWiv40ylvRRMoniQT1f2ieqGChhcTgLZTHY3/nnwAPsy+VNvVpav9B9M43xSc3S13etbi1fmDfzk8ox1iWtkFE0UbRSY5QW6Hn95nN7PG4X4SwfDywpQ+Qgkg0oEhyTUG/eqHllbJNSrq8aIgeH0fq4nZ5PamhnE0DVoqdgn+Zo9vyFFdDoz3SowQ/jFJIHsLGCPmq8wihLNZjKmwBuE70xgycFfeFlACD8IMpvkrBlylV5M6+wBhQw6KJpTGtl11QYt7928dv7dEx6Bo7Q1BRuIKw7ckTPFvcvaFjMuny7xLcUi2PPFZ3Mz3JK+Ua/txz2qicKV5DWpDdc9q4hwf8Ag8/6rvG2AGwAAAAASUVORK5CYII=;clipPath=inset(0.2% 0% 16.67% 0%);" vertex="1" parent="1">
          <mxGeometry x="1660" y="224.25" width="49.28" height="50.5" as="geometry" />
        </mxCell>
        <mxCell id="aRxl-0q_iQB1jEvVZf7H-62" value="Ansible playbook&lt;div&gt;&lt;br&gt;&lt;/div&gt;" style="text;html=1;align=center;verticalAlign=middle;resizable=0;points=[];autosize=1;strokeColor=none;fillColor=none;" vertex="1" parent="1">
          <mxGeometry x="1629.64" y="276" width="110" height="40" as="geometry" />
        </mxCell>
        <mxCell id="aRxl-0q_iQB1jEvVZf7H-63" value="" style="image;aspect=fixed;html=1;points=[];align=center;fontSize=12;image=img/lib/azure2/other/Grafana.svg;" vertex="1" parent="1">
          <mxGeometry x="1737.2" y="331.5" width="52.8" height="41" as="geometry" />
        </mxCell>
        <mxCell id="aRxl-0q_iQB1jEvVZf7H-68" style="edgeStyle=orthogonalEdgeStyle;rounded=0;orthogonalLoop=1;jettySize=auto;html=1;" edge="1" parent="1" source="aRxl-0q_iQB1jEvVZf7H-64" target="aRxl-0q_iQB1jEvVZf7H-66">
          <mxGeometry relative="1" as="geometry" />
        </mxCell>
        <mxCell id="aRxl-0q_iQB1jEvVZf7H-69" style="edgeStyle=orthogonalEdgeStyle;rounded=0;orthogonalLoop=1;jettySize=auto;html=1;" edge="1" parent="1" source="aRxl-0q_iQB1jEvVZf7H-64">
          <mxGeometry relative="1" as="geometry">
            <mxPoint x="1760" y="330" as="targetPoint" />
          </mxGeometry>
        </mxCell>
        <mxCell id="aRxl-0q_iQB1jEvVZf7H-74" style="edgeStyle=orthogonalEdgeStyle;rounded=0;orthogonalLoop=1;jettySize=auto;html=1;" edge="1" parent="1" source="aRxl-0q_iQB1jEvVZf7H-64">
          <mxGeometry relative="1" as="geometry">
            <mxPoint x="1990" y="249.5" as="targetPoint" />
          </mxGeometry>
        </mxCell>
        <mxCell id="aRxl-0q_iQB1jEvVZf7H-64" value="" style="shape=image;verticalLabelPosition=bottom;verticalAlign=top;imageAspect=0;aspect=fixed;image=data:image/png,iVBORw0KGgoAAAANSUhEUgAAAOEAAADhCAMAAAAJbSJIAAAAk1BMVEX///8PFokAAIIAAIUAAICvsNIACIbW1uWKi7sLE4hXWqMKEoi8vNb19fkFD4gABIYzN5Slpsudn8dkZ6tER5t2eK+1tdLj5PDp6vXP0OTu7vb7+/7R0uVWWaOBg7jGx947P5gwNJRucK9LTp4bIY4nLJGPkb8AAHlgY6jd3eyWmMNPUqB7fbVxc7AhJ5DBwtxAQ5oGr4FYAAAMc0lEQVR4nO1daXfqOAwltgmYkFCWsj922lIK9P//uklKAUvO5hA7lMk9Zz7MI6l9Y1uWZMmqVExjWG/Ux8ZbNYgRoTal06K7oQ8u9SzL8sjzjuIHtQLQj6I7ogsjZp3BdkV3RRP29i9Duiq6K3owvgyhZRG36M5oQZ/cGFaL7owWrOiVYes5ZY3lXBlyWnRndGBwW4a+NB0U3R0NEJahvxCbRXdHA2ZUYEjfiu6OBjRsgeFTihpB0Pi66bLo7miAuAwt7hTdnfwxEUWpvxCfT6sZQoZPaEHtIMMnNC9qBI5hregO5Q7McFR0h3IHZviozprp16qTbX7t8pilbvvj+PKZqf2UaDNKKfuXRW3GkibD35jUCWl5HptlaD5tE5T/qFxZ2rh/t5hbhJ/f1beXXl1JZKM8yeCOz9V3/E92Ufs0SqnmdS156uYPWIeOpfr6l+DlOam+nBqnWy856yi+vPUEhsqa90r4QBqNy6k4DqoUV6J9aP9Te7kLzOe52ssKGIOZxvpKL9eBBVxXevcAG9boAgE2nsWUVjz0Yii5E2fQ8tLpxuq2QFNE5WOCDZGpyOIqMry6qt1WQB8qJt5mkv7dSYsLY6jQ6AgStIja6lCDCxlatKHw8uImTG2F99yWAxtlWo3nLoWtkVQCdeLWTv32y62n9GucevTXqEmVr5MBczSIiZbssNlZ9SxGCKHiUFBmrWfVNIvxE7eocb//wQZNGW8b/eyuvaKMUOpxSwa3KSFse6jGf6IBJqiuDSmiLX3ScN+u23w9+uzCuIEPRAnbrPrRK+vbRm+kWxd3YCJ1mgylh9zqPwZnZRwcn+VHxNSr4g/KVaRwNnRwm9Kp/GhFCf7ySWgRexYyXScO/kxEq/17BhbeFhMdEpP2kiXOzTBwyl4kRadufBUGkCaOvb/+Nv6ixLOywiP0DRjGePvVvNtf0cNT8DKI40OyaIkHp6QuSJ03tBVa9sIEQXjU+dPuOvhnd8Zwh7JxfLsoA7JUM+VHfpO2fV8D/6Q58PsBpe1zO9J6IGo21x3AmxQ9jC5eojzAyfZn3i/RkrbNHckNMR1KYjc/x6a+AiOAUjv2BY91x9iH7BOXd15taOKlGE0u0M2O/w6f7eZoNxgOh4PBblrtHPa+rkrt6HGnrLNC055pVkghpI0qDNwmxDq0p+E62Xj++dHyWUZybMH/j1APtaGbRNEXiuSjmuQEqHX2LJ0CRHRa9qHoxYpOf/M+pJxUbr9BktUEquicywOLSIq+AtbrK/g3KuNA1Ysn2NPGIxqTCIqc0Jm6u6/WJTEcSQEjGGARMrc4pZ1sfpRhtE5kfg2eIakcwWyibyrTE8KdhY+jOVUGoirviTb7ui/EYrhi8rxoFRRRLBPkpHe/u326kNW/YuJtZYKtnDrSkfdHVgBFmSDZ5xUDNOhJC1zxECgH9DFBL1cXWJ1JnhKjOmmI4k29fE3TOVZXudkYqjlDwoDs8z5KGGN1wqEGTacBJsgOGlrBqr3SOdd9OKdniROoraWdOloKdJ/8Tj74biGCuuIG2vjc0JBqA0+cLUdjcEsVLQdt3xLgBD8s1xqB18SNGZA2LnRhcrVgBWUgxcKEQ7hLuQBHu67RYbYngGgM2jtjFMQmCtAjRUW0ewAvBnfFEiVKlChRokSJEiVKlChRosQjY9C8AR+G9G8/obBldzQ6nean82/VNgRyAQoNJEQzuM35vNlMeV4wD/5gmsj46vstNOuIfhN+eofnJLV3Eg2YwzMW/0p87wc/j9I0zq7JIsgGSJX4KZzNey/oN8Gzh7J4cQQacBnDqF4xOSwhF/Qcps9ZciyUu/k5x0mVLpaWIfQD62ToP5Y0NOPN+SzuMRgOFRhec3Ljz7aGl8PGXBlCV7dmhhaJu81mYF/Owv4wQ4tEn6zVbjFxf46hmLBIFxE7y1yI3c2VIczEVWA4yMbQosvQh5viAVxRDL2sDGFOAN2ERLPAE0ZTDBnCIh+Glm1JpzIdlD5rhmFCGnJ2hpZHkVYmnfQbYhivbN7BEJ+of0k5Zn+eoa/BCUrqSlr8T8BQjGxpyNLtGRj6cuxXD8f5z8/D0PoxkSbfYcHEqgyd7WAwvmI4AH0rjmEQ9O2+hEZLqzL0RReE2EoMQxcid4YWaRzDc1CUGcYg/Y7/nj9DKyorzBRD9OQdDNP1pWRYMnwUhlFZfOK/58oQOkH1M6T1sC0+cOF82MJDf5lhp/IR0gh5Fa89+usMKzNp92D1ijaG0ONvhiE2eM/3qRXAEGZt37PjY4bQacHPuUL3MOQxWls0Q9KuAuTJUPSs8d80mjsY8i08QxLJxzDM0YshM6xML97Rq71/B8Ns1hNPuF5FgeEwhGFld/Zwe/Ry+mWcoYPP5HJmWBlyfwO07Wumo3GGcTdj5cKwMj5Serz5Tp+QYcXdiv5v87NUhWH8o1EMK8Csfuh16PDuK8AKOO4jGQI8tCy1eAumb7wDv/34MRlarc8+QjRDDPYnGCKtDcdiqDAU7KWHYogQc3740AxzOQP+3zN0/wcMb7aSEYbitfH5xNMkMJyYZujmEvWlwLBSJEN0w0HGqK8khrYWhuyakUrRDXeTd/sKdCt6jdmRoDZkeH5UyHx1nOC/HyCGnnPNx42+duPjkrfrOKnS2eer3ssv9l/ot17jih60CnbrRiT+waub3fW//X697vV639+Lhd/Mcrndbo/HjQ9pDG9qA4u8mHW2PasYvtW4MXB7a4kSJUqUKFGiRIkSJUqUKFGiRAlDGBJ44rfWW157sIAXxJm4VrDDxEv3eGi+VW4YUNsSWzNz1+4eRkHaG32V7HboplSC/Zt64NoeoqhrFEeo8ImhQkGBgxu64m1Pz+JoottLHap3zQvAV117Wur1fUq3FRusVY5LsHCW//23Kxwuq+m24ghIJVjIOl95M17iqG7T9RH2uAPUy/My2pMUmU+M10eQqsw4Oc7UA16C8VcOaIJcSIcs8xEFo438p/UWVw3HRKbosa/7r013X+UaHko1eXNESIoHpfcWoqiG1KeTgkKMoSF3hpPlPXXP59vQ+nRU+w3QUTiG5AF67DurVJ0vQorMFLcOK5FVu2y2zzKOzUh+wSiujRVGEBCeanXmuGyr6ZDDt4T6pfRbE4sYhKzCGzxCGjFljCHc6jq5filda2UTAunKBmkg05TOCypbN0iq4nmmS8vhJKsokptVVPlDf0sddbpeND0Pl3E3qpnO09awDEpYkm3jq1M91XaDoTtxx8PBbt5v1xtLQmgrcnJy0sNV1U1WfRrjbctG9SbRaOAypEFstB0rWVpBmBfib7JeEK55bHe7MaJeHR7bB36DOpqnSdkq+UGuBzyszI+5lcvlZHNOUZWuHKA6ihKFYIcbbv2oHO2Ekrkp4ZBb1YxGVH1szXjBE5Kd42knHftujg7xhDjLkVT8bGOCYFxt9bZ3R2n1YHvZQG+MVCWTGAiwDCkHLoZE919YxvrqnLI1dtpJuxKn+hzQF0hihqIiodMVJbGbRygooYeQzUBaiVS739uVRkg+LZk0P1iypnlDoBasTqHWg3yDC9PtF36T3HyhK2PS77ZYdEVqwI5tXpuRxpFUHlu7OYyHJlq6TaadBgnKi0fIV+4FRcmtQ4J6vkHChidknt4LSZCy+NuJd9Wv9dHnSSgsJM4Js79f26Pk3k7xPNUsTnvoi6ZS+N3aqfo2W4kEN6NxWqsdz1MnIYfzPuCFb6uY3lthuibcSwDwjcvI3+PsSsInlDOOyu4E8oFUzIQxhSuZ6vTwf8NJqqQmNsHFGiq23hR6+bmX/EpWoM1QrXIesIXUNm50YqnRTpyCRR+dqROKrricPDXfGayDSPTVJOyDpZR8VzrARlxNqgIR1CSlii2rtEOyE6zAmUYUlS/x8h2Nak3nupTUS+S6d66lk3Bv96viu+lxnaW2enAC2krVN7Xa9VhK4xj++tg4WSS7ejF2UDXJIC3cxq+7S2doVJ15vjGQqfwoyqRV2hAvaG4I9Ryi9Qyj87LpZpPV0xwY+kb/rGcdijiHSoERZGigDK1poFkanZz9Z4EZPt8YIj9yxnX4yMD7oe561+aBdBpipBK8WSCGeouyFwJgW1hMXSt6eAD70IR33jiAjW/usNMggPms1ZtUFMB2EX0by1+GJYgak2Hp5tC9LUSu4hH+OxAWIj5zfBIIWs0zajQBVpdp6mj0WheKq3lBns90+sXHeRAdXnRHtGF4duuaDMEzjX5AkTynIP1F398KTUbe/wd1vMijft2gswAAAABJRU5ErkJggg==" vertex="1" parent="1">
          <mxGeometry x="1790" y="222" width="55" height="55" as="geometry" />
        </mxCell>
        <mxCell id="aRxl-0q_iQB1jEvVZf7H-66" value="" style="shape=image;verticalLabelPosition=bottom;verticalAlign=top;imageAspect=0;aspect=fixed;image=data:image/png,iVBORw0KGgoAAAANSUhEUgAAAOAAAADhCAMAAADmr0l2AAAAkFBMVEXaTjH////ZSSnaTC765uLYPhbkgnD99PLaSy3dW0HZRSPZRyfZRCHYQR3YPxnYQh/++fjtsqb11dDpn5P77er43djzysLeYkncVTjwvbP219Hyxb3lh3b54t3dXkT0zcbgbljieGPomInsqp7jfmvfaFHqopbnkoLvtqzpm43hc13traHmjXzieWTfZU7XOQy3CafTAAAQcklEQVR4nN1daWOqvBIGYmtMQFBxrda9WvX0/P9/d1kUWRLIZEKP730+9MPpKfKYZPaZWHbrCMLOeDIf7Ee35fJ2OEQ/T6P9YD5ZrMKg/U+32nx4OJ7vl5vPGet7LmPciUBp9INzxlyvz6zPzftoPg7bfIe2CHaH1+XGimlRQiwJCKFORNX6eb8O22LZBsHuZLexmBtRkzEr8aSOy+jx9tEGSdMEg8V+wzxlbnma3Hd/voZdwy9klGB3fZp6LgVzy0BZv2d4IQ0SXJx60YnTZ/dYSDZbrs29lSmC4+9Zn8P3pYSjN9sNDb2YEYLBxx+XGWJ358i8zdzIcTRAMNz3PMckuxTU632vXoBg5zQzu3hPEEaX439McLz8a+rkCSnyty3yMKIIjpeMA9+YMSBHxzugKCIIdk4cSs/t7QdgReIwzEbVJtj9doD0LOpcA3sH/asInN20lb8uwTlctDjTaCE6ctO7DowONF0rPYKLrQd+T2car8LA1eEX7W7/OPk1gsGIw/UeJZ34bw/aGpO6Jx3Nr0Fw3dNZBZ7alw5CqTDy8QsEg5OnY1C7X+lf/9XnF+1T7x0sbKAEhz9ah4hMUxnRecMQjPZBD7qIQIJfmv5Q//5eWILRSdy1SDC8eJqvdbk/oYvaogncKUjtQwiuexpKOkE/82A1YhllONa8HYJXbXedHrOHbNAuf2zxjVogGNzguv0Bd5A9RsdSq8L/oyxNVQmGG6gb8ASxOtlzPnwTBC3+2al5WQ2C4xnim6fb54M6lhn30bEUA1NqBIcW5uiwfe5RW0PRDcrVNKISwbmW8ZLBXeSedda0tisg/b30hYEEz/riJYGT93RC6QoS2oM911cRpgoEr0h+dFp43B8JQ8LOR+AHuScTBK/YPcWXhed99MX/zfsYS36DYthIcA/+1DLYV+GBwUy4TpGu1NCR/g1LcIDmZ7nn4iO/RRo1XuaphijzmtawgaAJmVcmuBI8k8zCGvFTB/9L/OZqBOeuAbXsl21jgZh5m0TGhJ6r4tVri1qCQxP8IulRemzVXHO28T9r+mJvtc5FHcEx2KwiIougQrDbKz+Xxy6edsDNrYu31RAMe9BDz0eTS7/ypfQrVmNZXPJ3G0EwWoaaLJScYLABS20S+X3zStysvyg/elWSoyzx0b+0/RXak3tPcoJLjc/zQsHBfat6NkW3NzmBKIuCb+AErzoK0It340d5fapf77wgT9z0kGpv0fgR0lCUjOBaa7+krvuu8LdkVg1Id/MZCjJLjXFdKZqgoosaCHYqgk4JPPkig4JJQn8Ezz/x8h/Z9gJjNBFaOem1BC96Dvzdri4oOueP4Pn5DfIQQh1UuIZ+ijMXYoJfmpET5z39+2NuCbnIWswtMull74IyK5jY7hYSHOqehodntM59QbmQWv4rzJaQZW6rzFNURF94DEUEuzpmfUrwIcxyT2DC2MlTFfqZHaCvCBPkg3f1BE/aH5StRk7kc3GA77GLSS87O0Oka8ZFp11AcKL/RWbCupM7YuLD/1gu55D9U1cvvZ37+HP1c6oEg5l+CM3LKj6yTK5QiEZY3c85uz7/7R0ZUiRe1aaoEtwhDAo/+4DzYxuwbzFBe5ouF8vpL7R7zd+bCS4Q2ojMngv0WAxfFp9N92jBzsGHvd2KJC0TDC6IbcJzqujnvtGpLImQxtCyzGEC/RKFO0hF3ZcJnk0ZhHdjjP7I6luCRKQUQ24oczSBWw7RlAiG4pieIlhute7vKrRjUmzjNfaK3jg+NcNKzm+JoDCkp4rCat2z8ZV4xROJX19yFkc4XR+BH4qfUiTYQWXvWCFXkB4nJi/emftx50RxB4dYVRhZbMXixCLBG8qgZ4XgS+K1U7mrnXgUld/rW1EPOAWxVSSIUREVmyWRMlI/NMLKKsrdBB1MKVSKovFbIPiOIliSJ4k5KghXZIijh1VXAyUFEtBjftvnCQ5xz/aKPvXEE1oWTwSRve1XQoo4OZ6+SH4J8wRx/ljOjEmwYDJXKfd5vFrUc0WXKRSCJDmCK1yZFSsFtjrEotPaAsgbJ0TwH8Dx5gryoeYcwSWuhMUvLUZ3RsTOfIZvTqcCOwdvzuRl85OgZrFx9tBy8Cz4pFZ9BeuViX0pfCEGe+rCJ0GkEeFeS68ZbJrKID5csSG3RldD5bLmGcFqygdIsOI1bBsW0F77TJy9xDsVTqaeMoJz3M53DpXXvDRV6oyZKMZga6dCc3hajRnBC052sarJIn75HDq8mllLgQwg5q2qB8EFMmQ30+jcCGhfUtu6RuvCLJDwIHjCHexSLYwiiCSkaKCsNDsyD4JIN0W21+rxacnWHa8L+2GB4BoXcyWODj/7IsispQiQMv2ptu4EkVZMTWCiDrdPaUMS2ql4WDMpQawJ7+m1+O2P0l+N0daMM84RLGedgagG69Qwr/H3j1gxcy/DTQniQhW6O9QebuW/26P36CXICKLNNI2mqRidGuUyxvbI3IOYCUGsDJUKwwZ0ZXmLGOjgTGoHJgSRjoQsgdSMuiozpGB/5NMTgtoZ3RQVT0kZdc0PZ6y5RpJa8ZhgB5m1ctHd/CKM8fbo+k4Q+V09CnkMAx9eS1KTMUHkbtc/gvVAG9xJas4qFybBIXHL0UAq57jsopsQxFUY3SvwWgCyqiSCO0wIYhvCmGojGBBnPMFrQhCpBQltafwbopzljlgTWugACJW7BDiMDaRhYoLBJ7L1SitaoQCsbIjTq2FEEPscBmioBSHEJ+zddURQr7Y3R1CpjU8DWB8nfrdBRPCKJFitvXkdgnwXEcT2Rddlqf81QbqNCG6RFpFexFABWAvLimMpgRVMkd9TawSzajAEwVlooY32mlIfHAxsUctdWWht88pn0OoPLXjjbAn6/nwDDOjBSMRb6NkLrSl6vCUT1xNbmI6hBK2ZasiMXgI+svAB1mnzu2phboCgc7JG6I3gtOQuob96K9b01g2d5fAlbVFYYGvwE4Ib6x2tTctt5IZgwJCJp4FZyOID69mRZRgrI7ODehbWFG0tLjo3MzvI+sFr02pNpAmYOIIxkAGLGNLmFhTwQzRSYJ0JK3FKzPOboOss7jBA0KodRaAJUzvUCEFBoRoWpqZ3GTmDlqgyGQkTZkyKjRGCmlUIUgT4uuYH8Howxl/D+QlUj1gRAEvGdZlsuGSlwQOHmkouQpkP8PB6EFt0+DHazpgvHFLJjVrceyEF4jCPzbajj5Wy4IhsUfU6yqQapjs+n6a+x8pFHqWOIRzCSgkJjbh51p+IW6xy1c1UerG+lP/zM1XdHe4Pnw4r3OzSr28hAKHQYkTjD5oe9uvnMVcXsfQA8eidvCTpjue7Dem7jy+bUAOXQ6TIKucId/vOcbmfdAqmUqBex+bcLEDns1tJs4TD6x/i+slSOjWVdSCEcZ87odx3Z7frUHC71kLdz+BfFqC2VtinEp2I+S25ZqlvyOa+uNxn1mb3IVM9gPJrNgDFReVFd93F+bRxjISAv/nmdl7UVL9B4qX+ByiyTetFZWjiFHYbLwkT6xAx+kOrC8lNvLVStAWDZPijGO7KAlXitVXUBMEAYMXF2SVYfpCZuu9JG6B6fPoTADO8/34JBxA/KnJULdhftOK8QwDLqSU5eliVRSvxFwBGoFwRO8PrZCrTMH4VHZij7w7hlU6EG7M5NXAArQax4konaL+lUccICGAXZ1qrBq7LlLRt/gJARomVNv1FBNfAHC8h/8qeuQGXIm5zjwiG0DSO01YBZQPm0Gx7PBBLq2bbbyUZ0YQQOpI+6ciJq+7h1d/sH6j7YAMN5if3XMQE4ZUkVKcnGYkdONadtAPEBEN4JQm//LZBoxEKTto2dXuXVG5CMIk1/KLRdF6UdveZeJpnW+ho3NeUtr4nBHXmXkqH6raBUOsig3lGsKuTQ6OzlhpCBPyOOhUX/NkBqtcm5Ezffwk/Oq93vwwJ04VNnF+CVobvPrjUTB/9K+KeSrhPQkC3sr0cHjHcO0Hs/ODXw6OC7jGN5P9uj3rdIkH8xL3XQlYh+CCI72V7LfiTEkH8GKWXAs2imxlB2Y1dNeBvvwS4t/PM1WYE40F2MLCvsPM7ADuscWdkmSC86blhcqFBgK/ayFVePQmCG01+jyBYS+eqdnLTKaHjdV+XYD42nSMYAoMCr0swf9NTfkIscKbFyxIsjH7OEwQq+5cl6OeDmoUpzTCf4lUJOhfZlGZ7BZqj9KoEi/PMi5PSQYL0RQmWCsiLBEEh4BclWLosr3RbAaSK6DUJlgeBlgh2AcXgL0mQOKVgZvnGEEDx4UsS9Mst05VLbdSHXL8iwWrFZ4XgWFlVvCLBauKyeu+S8s11L0hQMGpYcDWYquf7egQJr9bRCgiqXjvxegRFl1iJbq/7VlOG9PhbyRfFik/h9R0igqpl+/S1ki/iwgHhDZJjA3eY/z7Ec1/Ed4BCyoZfBZKreCW3uB7+c4Fu5yiu+5AQ1EqK/0tIL/yW3aQ85v+tdJO0Z0V6F/ZZM2NIkND7VE86tUd+m/lJS5SSHhJa/IT3tzYRDLQEDVt3Uejo8HNq7neSE7S7R42MmossDwIXr1oNpYE1BO2OxoW1ulPhH9CwMQiva8epIwjwDTMw5BCyDzhBr7Z4tZagPQErC2y/OXwCglfv1NQTtD+gVYySLlFlgAcU+Q1OWwNBew4tlGaoknzwHaD9pkacJoJghriBsdA5R15jeXwjQXsO26XlexZhAF6E4jePHWwmaM9dEMN6oVYP4CRJX6FRTIEgUNLQjb6YgbVRNchPdYKRtoDsHP2pxqCLB8mbUg+VEkF7PAN8tUR64VcDupBSHUrUhp2pEbQ7PwAFXHs5bQ0Uo3npZ/QUjV5FgpFvAfh0X0tVQJoD2VF1l6gStIMdQCGKIrBNWADMQu9d+SIkZYLRN6xeHE4c8DTAsXpJLoEYEwCC9kL9IBIHuIYLddeMzyDfHoSg3X3vKw9TYqBG2A/13eFdQA0pIIK2fXaU9YV3Uz4nwbfy+abQK3SABO3xRlmasqni4ItVC8/UJhjXlaruJuqfFHZTOOKquyJ6IPgaOTjBSNb4qhuKWaOGNwr2PWXJ5fY0JrVqELTtK1U1Ggnzdgu58b0aMWVXxeEjHStei6C9WnrqUt3d7MeiVxsPLkzZTyHeRS8gqUcwMvw/lfdpJPn4dHlePweIBeHifDty5cNsEXem66LoErSDqwVwEyl3fW5NL9vD+/byE62qC/HAGP/W9jG1CUZq/4sAoxmUUseJfgAnUjg7RK8pgmDkRO1I64lSzpao+S4oghHF0Ru8/1sdhP+9ISeDIAnGN7H23JaywdSdndATF9AEI4rnjddCA6nTn14NDJQwQDDCcOmYXUbqssPEyDQJMwQji3Lw01fXa/UgvP+5NzU5yhRBO7a7fgC6W4bIKvjcGRw5ZJBgpPwXow3zEXc8O65//B5qXjwthlGCEYLO/OB4Lpwkoczj24HQasXANMEYwWJ/mDG3MslZzo27bLb9GrYxo6YNgjGC8fx72+OMcYdKc36EOvH/6F1O87HRfZlDWwQTdDvr8+5w7Fms77kRkwiOE/9kruv1fdI7Hk7XSactbglaJXhHN1wtJvPzfhRhuYx/7gfzyXjVLrM7/gcaCCATjDg2mAAAAABJRU5ErkJggg==" vertex="1" parent="1">
          <mxGeometry x="1860" y="331.5" width="39.82" height="40" as="geometry" />
        </mxCell>
        <mxCell id="aRxl-0q_iQB1jEvVZf7H-70" value="Grafana(3000)" style="text;html=1;align=center;verticalAlign=middle;resizable=0;points=[];autosize=1;strokeColor=none;fillColor=none;" vertex="1" parent="1">
          <mxGeometry x="1710" y="378" width="100" height="30" as="geometry" />
        </mxCell>
        <mxCell id="aRxl-0q_iQB1jEvVZf7H-71" value="Prometheus&lt;div&gt;(9090)&lt;/div&gt;" style="text;html=1;align=center;verticalAlign=middle;resizable=0;points=[];autosize=1;strokeColor=none;fillColor=none;" vertex="1" parent="1">
          <mxGeometry x="1834.91" y="378" width="90" height="40" as="geometry" />
        </mxCell>
        <mxCell id="aRxl-0q_iQB1jEvVZf7H-73" value="" style="dashed=0;outlineConnect=0;html=1;align=center;labelPosition=center;verticalLabelPosition=bottom;verticalAlign=top;shape=mxgraph.weblogos.chrome" vertex="1" parent="1">
          <mxGeometry x="2088" y="167.5" width="33.73" height="34" as="geometry" />
        </mxCell>
        <mxCell id="aRxl-0q_iQB1jEvVZf7H-77" value="" style="shape=image;verticalLabelPosition=bottom;labelBackgroundColor=default;verticalAlign=top;aspect=fixed;imageAspect=0;image=data:image/png,iVBORw0KGgoAAAANSUhEUgAAAOEAAADhCAMAAAAJbSJIAAAA5FBMVEX////7eiTJYh3MzMz8lVD8l1L7eybI0dTGYR3+eyT7cADGWADGVwD7eCD7cgDJYRv7dRXvdCLYaR/pcSHIXhTHWwj7dBDQZR7gbSDTZx79+vf0dyP9vZv/8+zlbyH8rH/u0cHUhln9rHj8kEX7gTH9w6T8pnb+1sDpxbHQeEP57ufcnHnjspf04dbiq47PyMP+z7X7hTf9s4z+28f+5df8mF3owaz8nGTeo4Pw18nMbTDn5+f8n2nRfk3+4M/9sIfqnXLVwLTYk3LOcTbhZQDSXQDfqpHRe0f8jEr9upzUhVjXjmd9cWlZAAARNklEQVR4nO1dbVvaShOGVGnCJiRAEiCIxoqivFhfUXmKbfW0x1P+//95sgkgwsxkwya19OL+0OtqG5a5d3ZnNztzL7ncFltsscUWW2yxxRZbbLFFRmhdfLrd2TTcfrpoCfLz9o6O3tvctXB0tOeJELzZ3Ux+HEe7NwIE39tKScRS9Hbf20RJ7MYN1L3NHaIRjvZogq2I4O5mIqJIR9QLznB357Jd2Dy0L3c4x6MLkuGnkJ9h5DcRhhFy/EQyvN3ZPSpsJj8Oo3C0u3NLMgyc/N5WSiKYZjEMC+9toiQKMQx3Lzd3iEYwLndpH246wYAi7cONdyF3Ismw/RcwbJMMN3ilmMEokAzzfwHDPMlwQ3czizCMLcNNx5bhluGfjy3DLcM/HxkxNCy3VAxRcl1r3W4KWpk1s34rGTA0rGLx6GDv4vqm2+3edI6vvhSKpcT2GVap2P4SttLq3lxf7J0cFYvrsEybYWBY++p6+RS2dfHFKiVpyipZX1YSK971VXuNrkqVoVFqHyDH6F7nzrUEW7Gsuw5i0M1B201oU4oMA37H1Bn6zYEQR8v6SiUbWsftRMMhRYaWS/Lj6J4U4xo0iidxaT/vWHQ0pMrQKJ2IJOseX1yyGfdFIB+W807E3ZgWQ6uNzZxlXBFuNEoxeZQ5Om1RN6bE0L0VzSjnctfo0YhVeBRupXVLD4aUGRYPhC3jxl3C/W+9iHdTgIPi72MoPLam8Hag/nfpBMMq9kq/i2HpOKFpuRwwxNy7xK0ci1BMgWExoQc5vJflgWrdCtVNvMWewECVZ+gmmoNzikun6cblGgSDuRgfbqQZWklnzxTdN5svw0oUZF5xG7toyDI02mualrtYHGFF0dV0Ga3YvIMsw9K6puVyJ6/dv95ID9GJizaSDK2TtU3LefPuX3MSRjiJGadyDA1XwrTcxaz7JQZC0FExb1NyDNdYCRfxErUek8OMQ8yqKMXQaMu4MNihRsGmKL4bheDRwUaKoaQLc7kjQ8SFcd14TC6KMgxpFw5O75+eeud+l3imw51YvKZa6T+Nz8aTe59YlOgVQ4ahRcT44b+MORy6efiAPsUHGBVIh2eM2RyOrvTwrjqgwqkMwxL6Ov4wYrapRDBt/RA17srKu+i2dvCs28oMpsPOsQdvqFgjwRAvATjXTWURjuPjtrlYPw0X+IUc9UPM29QwlWBoXSEf6unKEkz9FH7Uu7ReUILmcjNsjFC8IoapBEMsQpyvEAwoMmQynmDHAz5bIRhQPIQfvibeomQYwh36MCOohpj+xVbhpy+QPXfLNGetzP7g0Pvg014mDI0j+CMjMzKsVt+vlqv7lVpkHbsHn74pwtOwx8JWlEa93Gw2y/sVU43GArxqHBF2rs0QWSuGoWlKvZnXtOCp4I9yQw1tAwOq54KtdMNJqPJWwi/TtEI17CokoBLb7/UZIlH+3yAAqpWmtvCkVubGMXiAwSPhPOgntfG2lfx+0Io5Akf7Hr6tWZ9hCayfHgQBQt3Xlh+uqIFt4DfAAdkJWqkvt6KVA8fqA+j5iywYwqH0lClqdYVgXgsowlMIDDTBUF8lGLTSNJGhQARTCYZgiDh3AA9yNFRswQBwZqsVqBWtrDo96AM3mTAEI0fPAU3L5wsm80UJPjClBn+pVrcn0Ce6v4/hk408rlXFGU5saKRHeHeGPXiMcggz7AYuxFrRqk/QR7IZpeA8/IkuTNo/YBQEcI/NZQ4L3DlkwrAExlIff5ERPbXygtUebQQJ4cSZosSKD66HLbSq2KBVAa84Z9BKMWslD645mayHLrx/usOGaZFWWM3hmabaRL/V+gL3ShYMLTCo5R6RGRFTUP6KYLVHFhwOeG7kJlnsS7Ua/BEkVyLswmdTLePmIucKDbxPJBj+gE9fWmDVkiWa/zxFV3sOFz6/7P7IhiFyMtEBii3EU1SBC9HVHs0inGbDsA5PxIDiSibBEiY41BUTt9b6Cn9qggdfKYY2tsA9tt+ENqN4J5xkdExitcfO5Tw7G4b7+DbM+1qa+9EoFgSDTIB+8OaLfmPeQPLNPsMHtsxJVBneBEdo7V2WQri74vxyXdskVns0Czex8egrw7BpOlROItd67HQ6N4myUxNHUfDVHtPZDRyTULpKMNRqDnx+tjaQV/sZkKUi2KmjryKSDCsK7cSk6Dom5ULsgLZLboKkMjPYkcKa8FSbdiGSRXhyiE2QZIYUO/laj+A4mIREIM278JIz0MlPSTEMhql9lhbBLidIrYVYtvLMJgepnA/LKnbOm5jfT5un0ogdKbbaBysoOUglazFqeFIpDp438E+H/X7/5/nT2NGd8BSfMBWp3HlgJtkvkgy1qqqYSuJ46nVP7w9Huq4zDsdxpvliKszkXfBrusH3Ezt1aYbciYr9nIye3ztzmGMD2UHKF4gLn236Y9IMuRMVB0lbQnjo2cwxAXYKHUfzJTCQHvLoRLtQ1odaI8zMim3NvOFzNN9gEGs9nOjyDnkmj3i9T4NhvhlmP3+JUByOVjPzc6i1JrUvgSpSvF+cIHFqlQ5DjSf1FOc5Ntz4z0BiXp2htk9+C5TJ6z7zHQK1gqbDMEwNBuEGrSeZ9vfkbemIGgThWqVSr+/v71er5YJG2gkd8vgOb1CtxNonz7BQ4yabeo8YqQ+Ks8BOqVWq5aY2Q7yNq/s1rxeN+Fr8BUEp1Oo3I8PZyMda6b8OUFWpVKcpfmGsHkT6IxYfndJjqJWjaguTjeH9TU+fV440qvlE5DhWxuhgPO0xtSzQWBqKEq08dZCtjwE/TtjMfXUqXqIWLsVRfzyf0iIE01EFzSkGHEf9pReqJybDL1gKF+trB/2Faj4hgikpu7RmbVa1ZDJ21vNfWd5HJVJLBSjieJ2Eg2C/x+Yzml5AU2eYny4aEUc72FQ743O/64UnvKEDxfobIMhf7L2ufx68f+j6625WYJlIm6FWVdRVHw7CPlcrhTUJlhYOuRd8qCoxm9EsGAYjNXDj0jz0nsNlmXorIrFSuDj4yedhoiGfppZba/5YWi/C+ru4zT+OInT25I9/JJrSKTI0SjtLsgJfFw95QHtwHj2Xe9xJIldPj6F7uXzm7vEXwbU9aLVxGUbnUlAEnE+PoVE8WNmX3rP1CRrFO+qNzDuIFfanzNCwVpMmXbDAUAyWFZfP6YhekJEOQ+sSOGSY2PEv4Ehz7uqAWAGmCM+EoQtpeHm9tymw91/lV/oicq9CzhNT5KfB0AWnzL/2OpPQcIsnQvw4xTsRiikwhJXAgQvhGlHKGKvU3kuiuo1XAafB0IIrtc+CWZjghl4jYGe9XCXV6R3FU5RmaBTATvfhaui3nCzLDVEqFgu3Xy/WSEa24q8flWZYgrv90KbPoo2iu3Py9eq///7bOz7uPLbWlWpex16rIMsQ0SQMYjJC1oucbvQVhA4hFYYGosuaOGRSz9qRk9cu4iXORDmGiKany6gKSmzurgeiPDgFhpgc/552oaS0eQkxgnw5LTdym4Wnky7ESg7WRIsW5EsxxArp6CJYWY37Cr6STpRjiOyvnm0qkCbTuHsD3/cfyHl7kxlDrCo2WO2pml36jvS3OB2zCKM+sR9Aa8tlGeKFdJQLE1zUMlTm54cmY/fo4CbvN5HRciMf7ZJ1zDGXwC/AO3yTUTWZipV9eNTbsIyWGxYG4PK1EKIV7bmWupCRi1IGDKm7zn3JRssNSyxzHjOVFGYhr3Jbhqn78MMXxDCV0XLDAW5ISV6wblnF4bIHQ4pIMWQrGy03MqFG1GovvBYOpwkdVWlUKpWGOdWr20hlC3GpgoRmBp6Gwbs9sdrjl2AsQQnzHUqlzHXcmpZv7kdydR2ONsRETF3LfUgtFYYh6MLT0IX1hYSOplU5R8SJV5kou8AZ1bVNYqlAr9JYxjgIM+ZSOkArNNAyOuISHgn9IbhynzLq8AIJTivg8dgE8i8VVYHDaSb6Q/jVsOcQ5WnQyxZYZDxg8FGrVlEdUBT4G7XcE0q+Al3ZA7YS7GyRjFUNLi0f/D6GY5tYKqCDVTD0+DrWT2UbVDr/Ri33mFJHQjMXZsiwNrQfoA+zYQjOwwnhQvDUCuynh3/QfvrnN85DUK/aw5deWPLig7RdlKEL7r4zuRcDXg/xPTCijoT10vguDC7Zz0bLDeoQYI1s+Dy82v8L/it6zosc0PYz0XLDiiD0RAGu1M454L+2sKGAvJsQk0Pi3QKu0cfU6sglrANEV/QVdgr2QvOcxbuF9gPeRcPbfMOAXegjL7XIhZbIDWpeRlpu+EUGtg07f+rpiPztETrnxa5G9zNiiNxjeAN8CL3z++wHpg0DRO8l7CrK+4zU6vDVVgHFwtJANVCCA1ZnmMCvY1mCreRGWWm5Mdtat4v9b7h59IbSc1bG1W9BM69rj1Fqo60MGHG4J3ESVSVkwJ2XkmuEsEqFK/zFfmTmzWf8vx/v8iXXClByX4gjrJ6TlZYbuQsxxM3V7aVmtF8OOsRDvl7TasjRS4TW9d7BycnVBVWB4qlU3Y6M0llhQ/LDnheXnh/bFa1ij+mHYjFkxAGtnJYbueJPGA+6WtWqqqSY2BuZWWm5q6qkRnZsK818U5F0Yp+pVcJKGYZN1WQyTjxlSiNopqGI3+QGwGOmSpUmSWm5G4qMID8YXTyFo+2rUqO959AVkFI54Cp2uCdmGot0S01FYet3lK8r5CCVY1gwFVNdt3CEF4GHEUKrKOt3VFcNbCDr5+S03HVVcX6taRqvII6WsaaKJpVi8cuJq0OWq6fhwrz1RlioxJjOHy4mtomdDYFQ7kCXQEpquQMnYvcz0wR/OQsS3iZXhAtpiZfQ1+P1KrKVezxFFLO1gcAVe68FtvyGWoURNxYhiG5ljrFQVq3OBflm4oU/lJkvCEAjRXgCXX+IUJoaW2ktreUONWvYizqM7pmzJBYKO0pxnhPF5fBy+/hKa+kK2kjozH6Jx8IH1V4xLeooWxG/RqQbjYN4qbN8nXekAnZUX9C0/lSFvdRMpAgXHu9+VItCX9ySEsNohCmm/iQSDAdnUxXo8htdc1oWdCbyojETq4vIHdLQctejOgmH9WN/h7Q3U/GupAdnWmJbf4ob8F6fRaUoQpqjVLTc9ZlcfTQkf3nm3pkVyQD5z7lc2mH3FEdvOGIC99mkynBOkdee9ZBR5vkTZ36xCZjgnVM0HefQR7pqcK/OxM6CqrGUtNzVuZTbYaPzFfO6pxN7/sszKlSDELbSNGc9FTw9OV32pOffj9i8l0QlRymp86KfP5iR1PWzXv/0YdDtdgf+8OdE1dmCCruBB/hCY0ERznR18nPoh608nPZ7Z/rC7Tbqci1K1gwD417l6jxeOIzpEZZvTCKvW4kug3ll6cxbYc5iJZ9aEVYcpajlnsrVSSz9ZgXQyuvdBUQrCcTqaSqdtXw9hqNaE7BMq8ZwVJV6kutD0lSrc44mbl3AT8gyLU9xVM2E92ukypDXnlUbKmReWGYoapmWL1fA4cCvf0l6PUPKDLl1zWpFef0ZpPAuKLOS9F6awJEVU33bTHR5T1KDUmeYDwtCm9V6pdKo1WqNSn2f35i0VjPN8n49bIVfKVVtity4tIosGE7tE78IKtNWMmP4x2DLcMvwz8eW4Zbhn48tw7+eIfrbRpsDI08yvPwLGNJ6wNu/gCH9Gz7EL0VtCpBf3prh81/A8DPJ8OM3seum/lxY3z6SDD98Jn+Z/c+H0f78gWb44ftGLxhG/vuHOIYfv7c3d6Ba7e8fYxl++PD5m8urYd/b2oQILHbdb585AZLh//gTHz+f312+t8WJcXl3/vkjN/9/JMPQiZzkJmJqO00wcuJGI8aFcyduLuII5rz3tlASAuUTm01RrFhuc+di7BzccI7i/LbYYostttjiLf4Pe9rnVCOINeIAAAAASUVORK5CYII=;" vertex="1" parent="1">
          <mxGeometry x="1990" y="199.5" width="100" height="100" as="geometry" />
        </mxCell>
        <mxCell id="aRxl-0q_iQB1jEvVZf7H-78" value="Localhost 8888:80" style="text;html=1;align=center;verticalAlign=middle;resizable=0;points=[];autosize=1;strokeColor=none;fillColor=none;" vertex="1" parent="1">
          <mxGeometry x="1980" y="309" width="120" height="30" as="geometry" />
        </mxCell>
      </root>
    </mxGraphModel>
  </diagram>
</mxfile>
